<svg width="20" height="20" viewBox="0 0 20 20" fill="none" xmlns="http://www.w3.org/2000/svg">
<path fill-rule="evenodd" clip-rule="evenodd" d="M7.36039 3.61958C6.37659 3.45965 5.37338 3.45965 4.38957 3.61957C4.04633 3.67537 3.70151 3.75838 2.93703 3.94356C2.81457 3.97322 2.74342 3.99059 2.6902 4.00571C2.65677 4.0152 2.64281 4.02046 2.63938 4.02184C2.63938 4.02184 2.63938 4.02184 2.63938 4.02184C2.57135 4.05529 2.5224 4.11763 2.50597 4.19113C2.50544 4.19481 2.50363 4.20958 2.50228 4.24406C2.50012 4.29927 2.49999 4.37241 2.49999 4.49834V15.8195C2.49999 15.9081 2.50003 15.9624 2.50093 16.0032C2.50151 16.0293 2.50231 16.0408 2.50252 16.0436C2.52141 16.1748 2.64043 16.269 2.77377 16.2563C2.77648 16.2558 2.78791 16.2539 2.81362 16.2483C2.8535 16.2395 2.90632 16.2268 2.99252 16.2059L3.00807 16.2021C3.34105 16.1215 3.52685 16.0765 3.71292 16.0383C5.13942 15.7456 6.61055 15.7456 8.03705 16.0383C8.22309 16.0765 8.40886 16.1215 8.74172 16.2021L9.24998 16.3252V4.04946L8.81292 3.94358C8.04844 3.7584 7.70363 3.67538 7.36039 3.61958ZM10.75 4.04947V16.3252L11.2581 16.2021C11.5911 16.1215 11.7768 16.0765 11.9629 16.0383C13.3894 15.7456 14.8606 15.7456 16.287 16.0383C16.4731 16.0765 16.6589 16.1215 16.9919 16.2021L17.0075 16.2059C17.0936 16.2268 17.1465 16.2395 17.1863 16.2483C17.2255 16.2568 17.2315 16.2568 17.2241 16.2561C17.3583 16.27 17.4785 16.1755 17.4974 16.0436C17.4977 16.0408 17.4985 16.0293 17.499 16.0032C17.4999 15.9624 17.5 15.9081 17.5 15.8195V4.4984C17.5 4.37246 17.4999 4.29931 17.4977 4.2441C17.4963 4.20961 17.4945 4.19484 17.494 4.19116C17.4776 4.11767 17.4286 4.05533 17.3606 4.02188C17.3572 4.0205 17.3432 4.01524 17.3098 4.00575C17.2565 3.99063 17.1854 3.97326 17.0629 3.94359C16.2984 3.7584 15.9536 3.67539 15.6103 3.61959C14.6266 3.45968 13.6234 3.45968 12.6396 3.61959C12.2964 3.67539 11.9516 3.7584 11.187 3.94359L10.75 4.04947ZM4.1489 2.13901C5.29211 1.95317 6.45787 1.95318 7.60108 2.13902C8.00762 2.20511 8.4104 2.30268 9.13213 2.47753L9.80156 2.63969C9.87467 2.6574 9.91501 2.66711 9.9459 2.67369C9.97259 2.67937 9.97792 2.67954 9.97569 2.67933C9.99185 2.6809 10.0081 2.6809 10.0243 2.67933C10.0221 2.67954 10.0274 2.67937 10.0541 2.67369C10.085 2.66711 10.1253 2.6574 10.1984 2.63969L10.8679 2.47753C11.5896 2.30269 11.9924 2.20511 12.399 2.13903C13.5421 1.95321 14.7078 1.95321 15.851 2.13903C16.2576 2.20511 16.6603 2.30269 17.3821 2.47753L17.4161 2.48576C17.4318 2.48957 17.4476 2.49338 17.4635 2.4972C17.648 2.54158 17.8424 2.58832 18.0148 2.67203C18.4971 2.90628 18.8455 3.34876 18.9598 3.8728C19.0007 4.06008 19.0003 4.25998 19 4.44958C19 4.46594 19 4.48221 19 4.4984V15.8195C19 15.8316 19 15.8436 19 15.8557C19.0001 15.9882 19.0003 16.1237 18.9842 16.2425C18.8575 17.1795 18.0091 17.8456 17.0692 17.748C16.9499 17.7357 16.8184 17.7036 16.6895 17.6723C16.6778 17.6694 16.666 17.6666 16.6543 17.6637C16.3017 17.5783 16.1427 17.5399 15.9856 17.5077C14.758 17.2558 13.492 17.2558 12.2644 17.5077C12.1073 17.5399 11.9483 17.5783 11.5957 17.6637L10.5516 17.9167C10.5426 17.9188 10.5336 17.921 10.5245 17.9232C10.4133 17.9503 10.2942 17.9793 10.1696 17.9914C10.0568 18.0024 9.94318 18.0024 9.83036 17.9914C9.70576 17.9793 9.58668 17.9503 9.47544 17.9232C9.46638 17.921 9.45737 17.9188 9.44842 17.9167L8.40431 17.6637C8.05169 17.5783 7.89266 17.5399 7.73558 17.5077C6.50799 17.2558 5.24198 17.2558 4.01439 17.5077C3.85731 17.5399 3.69827 17.5783 3.34566 17.6637C3.33395 17.6666 3.32222 17.6694 3.31046 17.6723C3.18159 17.7036 3.05002 17.7357 2.93078 17.748C1.99088 17.8456 1.14247 17.1795 1.01575 16.2425C0.999686 16.1237 0.999825 15.9882 0.99996 15.8557C0.999973 15.8436 0.999985 15.8316 0.999985 15.8195V4.49834C0.999985 4.48216 0.999959 4.46588 0.999932 4.44953C0.999623 4.25994 0.999297 4.06005 1.04014 3.87278C1.15443 3.34872 1.50287 2.90623 1.98523 2.67198C2.1576 2.58828 2.35192 2.54154 2.53643 2.49716C2.55233 2.49334 2.56816 2.48953 2.5839 2.48572L2.61783 2.4775C3.33957 2.30266 3.74235 2.20509 4.1489 2.13901Z" fill="#061D5C"/>
</svg>
