<svg width="20" height="20" viewBox="0 0 20 20" fill="none" xmlns="http://www.w3.org/2000/svg">
<path fill-rule="evenodd" clip-rule="evenodd" d="M2.5 3.75C2.5 4.44036 3.05964 5 3.75 5C4.44036 5 5 4.44036 5 3.75C5 3.05964 4.44036 2.5 3.75 2.5C3.05964 2.5 2.5 3.05964 2.5 3.75ZM3 6.39648C1.84575 6.07002 1 5.00878 1 3.75C1 2.23122 2.23122 1 3.75 1C5.26878 1 6.5 2.23122 6.5 3.75C6.5 5.00878 5.65425 6.07002 4.5 6.39648L4.5 18.25C4.5 18.6642 4.16421 19 3.75 19C3.33579 19 3 18.6642 3 18.25L3 6.39648ZM8.75 14C8.75 14.6904 9.30964 15.25 10 15.25C10.6904 15.25 11.25 14.6904 11.25 14C11.25 13.3096 10.6904 12.75 10 12.75C9.30964 12.75 8.75 13.3096 8.75 14ZM9.25 16.6465C8.09575 16.32 7.25 15.2588 7.25 14C7.25 12.7412 8.09575 11.68 9.25 11.3535L9.25 1.75C9.25 1.33579 9.58579 1 10 1C10.4142 1 10.75 1.33579 10.75 1.75L10.75 11.3535C11.9043 11.68 12.75 12.7412 12.75 14C12.75 15.2588 11.9043 16.32 10.75 16.6465V18.25C10.75 18.6642 10.4142 19 10 19C9.58579 19 9.25 18.6642 9.25 18.25V16.6465ZM15 8.25C15 8.94036 15.5596 9.5 16.25 9.5C16.9404 9.5 17.5 8.94036 17.5 8.25C17.5 7.55964 16.9404 7 16.25 7C15.5596 7 15 7.55964 15 8.25ZM15.5 10.8965C14.3457 10.57 13.5 9.50878 13.5 8.25C13.5 6.99122 14.3457 5.92998 15.5 5.60352L15.5 1.75C15.5 1.33579 15.8358 1 16.25 1C16.6642 1 17 1.33579 17 1.75V5.60352C18.1543 5.92998 19 6.99122 19 8.25C19 9.50878 18.1543 10.57 17 10.8965V18.25C17 18.6642 16.6642 19 16.25 19C15.8358 19 15.5 18.6642 15.5 18.25V10.8965Z" fill="#061D5C"/>
</svg>
