<svg width="20" height="20" viewBox="0 0 20 20" fill="none" xmlns="http://www.w3.org/2000/svg">
<g clip-path="url(#clip0_112_44)">
<path d="M4.593 3.26512L4.23829 2.91041C3.88358 2.55571 3.3106 2.5648 2.96498 2.91041L2.95589 2.91951C2.60118 3.27422 2.60118 3.8472 2.95589 4.19281L3.3106 4.54752C3.6653 4.90223 4.2292 4.90223 4.5839 4.54752L4.593 4.53843C4.9477 4.19281 4.9477 3.61073 4.593 3.26512ZM1.8281 9.04957H0.900409C0.400182 9.04957 0 9.44975 0 9.94998V9.95907C0 10.4593 0.400182 10.8595 0.900409 10.8595H1.81901C2.32833 10.8686 2.72851 10.4684 2.72851 9.96817V9.95907C2.72851 9.44975 2.32833 9.04957 1.8281 9.04957ZM10.0136 0H10.0045C9.49523 0 9.09504 0.400182 9.09504 0.900409V1.77353C9.09504 2.27376 9.49523 2.67394 9.99545 2.67394H10.0045C10.5139 2.68304 10.9141 2.28286 10.9141 1.78263V0.900409C10.9141 0.400182 10.5139 0 10.0136 0ZM17.0532 2.91951C16.6985 2.5648 16.1255 2.5648 15.7708 2.91041L15.4161 3.26512C15.0614 3.61983 15.0614 4.19281 15.4161 4.53843L15.4252 4.54752C15.7799 4.90223 16.3529 4.90223 16.6985 4.54752L17.0532 4.19281C17.4079 3.83811 17.4079 3.27422 17.0532 2.91951ZM15.407 16.653L15.7617 17.0077C16.1164 17.3624 16.6894 17.3624 17.0441 17.0077C17.3988 16.653 17.3988 16.08 17.0441 15.7253L16.6894 15.3706C16.3347 15.0159 15.7617 15.025 15.4161 15.3706C15.0523 15.7344 15.0523 16.2983 15.407 16.653ZM17.2806 9.94998V9.95907C17.2806 10.4593 17.6808 10.8595 18.181 10.8595H19.0996C19.5998 10.8595 20 10.4593 20 9.95907V9.94998C20 9.44975 19.5998 9.04957 19.0996 9.04957H18.181C17.6808 9.04957 17.2806 9.44975 17.2806 9.94998ZM10.0045 4.50205C6.99409 4.50205 4.54752 6.94861 4.54752 9.95907C4.54752 12.9695 6.99409 15.4161 10.0045 15.4161C13.015 15.4161 15.4616 12.9695 15.4616 9.95907C15.4616 6.94861 13.015 4.50205 10.0045 4.50205ZM9.99545 19.9181H10.0045C10.5048 19.9181 10.905 19.518 10.905 19.0177V18.1446C10.905 17.6444 10.5048 17.2442 10.0045 17.2442H9.99545C9.49523 17.2442 9.09504 17.6444 9.09504 18.1446V19.0177C9.09504 19.518 9.49523 19.9181 9.99545 19.9181ZM2.95589 16.9986C3.3106 17.3533 3.88358 17.3533 4.23829 16.9986L4.593 16.6439C4.9477 16.2892 4.93861 15.7162 4.593 15.3706L4.5839 15.3615C4.2292 15.0068 3.65621 15.0068 3.3015 15.3615L2.94679 15.7162C2.60118 16.08 2.60118 16.6439 2.95589 16.9986Z" fill="#061D5C"/>
</g>
<defs>
<clipPath id="clip0_112_44">
<rect width="20" height="20" fill="white"/>
</clipPath>
</defs>
</svg>
