<svg fill="none" height="245" viewBox="0 0 353 245" width="353" xmlns="http://www.w3.org/2000/svg">
    <circle cx="183.667" cy="148.333" fill="#60C9F8" opacity="0.2" r="96" />
    <circle cx="58.3333" cy="52.3333" fill="#60C9F8" r="5.33333" />
    <circle cx="338.333" cy="227.333" fill="#60C9F8" r="5.33333" />
    <circle cx="320.556" cy="135.889" fill="#027DFD" r="12.4444" />
    <circle cx="28.2222" cy="79.2222" fill="#075B9D" r="10.2222" />
    <g opacity="0.2">
        <path
            d="M241.639 210.922L235.72 220.222L241.639 229.522C241.702 229.621 241.744 229.731 241.765 229.846C241.785 229.961 241.782 230.079 241.757 230.193C241.731 230.307 241.684 230.415 241.617 230.51C241.55 230.606 241.464 230.687 241.366 230.75C241.223 230.841 241.058 230.889 240.889 230.889C240.739 230.889 240.592 230.851 240.46 230.779C240.329 230.707 240.218 230.603 240.138 230.477L233.916 220.699C233.825 220.556 233.777 220.391 233.777 220.222C233.777 220.053 233.825 219.887 233.916 219.744L240.138 209.967C240.264 209.768 240.465 209.627 240.695 209.576C240.925 209.525 241.166 209.567 241.365 209.694C241.564 209.82 241.704 210.021 241.756 210.251C241.807 210.481 241.764 210.722 241.638 210.921L241.639 210.922ZM258.528 219.746L252.306 209.968C252.243 209.869 252.161 209.784 252.066 209.717C251.97 209.65 251.862 209.603 251.748 209.577C251.518 209.526 251.277 209.568 251.078 209.695C250.879 209.822 250.739 210.022 250.688 210.252C250.637 210.482 250.679 210.723 250.806 210.922L256.724 220.222L250.806 229.522C250.743 229.621 250.7 229.731 250.68 229.846C250.66 229.961 250.662 230.079 250.688 230.193C250.713 230.307 250.761 230.415 250.828 230.51C250.895 230.606 250.98 230.687 251.079 230.75C251.221 230.841 251.387 230.889 251.556 230.889C251.705 230.889 251.853 230.851 251.984 230.779C252.115 230.707 252.226 230.603 252.307 230.477L258.529 220.699C258.619 220.556 258.667 220.391 258.667 220.222C258.667 220.053 258.619 219.888 258.528 219.746Z"
            fill="#027DFD" />
    </g>
    <g opacity="0.2">
        <path
            d="M288.481 137.912L268.934 130.667L268.917 130.661C268.602 130.553 268.263 130.535 267.939 130.61C267.615 130.684 267.318 130.848 267.082 131.083C266.847 131.318 266.682 131.615 266.606 131.939C266.531 132.263 266.548 132.602 266.656 132.917C266.657 132.923 266.659 132.929 266.661 132.934L273.912 152.481C274.031 152.83 274.257 153.132 274.558 153.345C274.858 153.557 275.218 153.67 275.587 153.667H275.62C275.996 153.664 276.36 153.54 276.66 153.314C276.96 153.089 277.18 152.772 277.287 152.412L279.904 143.906L288.411 141.288C288.769 141.178 289.082 140.958 289.307 140.659C289.533 140.361 289.658 139.999 289.666 139.625C289.673 139.251 289.563 138.884 289.35 138.577C289.137 138.269 288.833 138.037 288.48 137.912H288.481ZM287.889 139.589L279.382 142.207C279.105 142.292 278.854 142.444 278.649 142.649C278.444 142.853 278.292 143.105 278.207 143.382L275.589 151.889L275.582 151.87L268.333 132.333L287.869 139.58L287.887 139.587L287.889 139.589Z"
            fill="#027DFD" />
    </g>
    <g opacity="0.2">
        <path
            d="M139.953 66.34L134.219 64.2289L132.108 58.49C131.983 58.1504 131.757 57.8572 131.46 57.6502C131.163 57.4432 130.81 57.3321 130.448 57.3321C130.086 57.3321 129.733 57.4432 129.436 57.6502C129.139 57.8572 128.913 58.1504 128.788 58.49L126.674 64.2222L120.936 66.3333C120.596 66.4583 120.303 66.6845 120.096 66.9814C119.889 67.2782 119.778 67.6314 119.778 67.9933C119.778 68.3552 119.889 68.7084 120.096 69.0053C120.303 69.3021 120.596 69.5283 120.936 69.6533L126.667 71.7778L128.778 77.5133C128.903 77.853 129.129 78.1461 129.426 78.3531C129.723 78.5602 130.076 78.6712 130.438 78.6712C130.8 78.6712 131.153 78.5602 131.45 78.3531C131.747 78.1461 131.973 77.853 132.098 77.5133L134.209 71.7789L139.948 69.6678C140.287 69.5428 140.581 69.3166 140.788 69.0197C140.995 68.7229 141.106 68.3697 141.106 68.0078C141.106 67.6459 140.995 67.2927 140.788 66.9958C140.581 66.699 140.287 66.4728 139.948 66.3478L139.953 66.34ZM133.599 70.1111C133.359 70.1993 133.141 70.3387 132.96 70.5196C132.779 70.7005 132.639 70.9187 132.551 71.1589L130.44 76.8767L128.333 71.1544C128.245 70.9155 128.106 70.6985 127.926 70.5184C127.746 70.3383 127.529 70.1993 127.29 70.1111L121.572 68L127.29 65.8889C127.529 65.8007 127.746 65.6617 127.926 65.4816C128.106 65.3015 128.245 65.0845 128.333 64.8456L130.444 59.1278L132.556 64.8456C132.644 65.0858 132.783 65.3039 132.964 65.4848C133.145 65.6658 133.363 65.8052 133.603 65.8933L139.321 68.0044L133.599 70.1111ZM134 56.4444C134 56.2087 134.094 55.9826 134.26 55.8159C134.427 55.6492 134.653 55.5556 134.889 55.5556H136.667V53.7778C136.667 53.542 136.76 53.3159 136.927 53.1492C137.094 52.9825 137.32 52.8889 137.556 52.8889C137.791 52.8889 138.017 52.9825 138.184 53.1492C138.351 53.3159 138.444 53.542 138.444 53.7778V55.5556H140.222C140.458 55.5556 140.684 55.6492 140.851 55.8159C141.017 55.9826 141.111 56.2087 141.111 56.4444C141.111 56.6802 141.017 56.9063 140.851 57.073C140.684 57.2397 140.458 57.3333 140.222 57.3333H138.444V59.1111C138.444 59.3469 138.351 59.5729 138.184 59.7396C138.017 59.9063 137.791 60 137.556 60C137.32 60 137.094 59.9063 136.927 59.7396C136.76 59.5729 136.667 59.3469 136.667 59.1111V57.3333H134.889C134.653 57.3333 134.427 57.2397 134.26 57.073C134.094 56.9063 134 56.6802 134 56.4444ZM145.556 61.7778C145.556 62.0135 145.462 62.2396 145.295 62.4063C145.129 62.573 144.902 62.6667 144.667 62.6667H143.778V63.5556C143.778 63.7913 143.684 64.0174 143.517 64.1841C143.351 64.3508 143.125 64.4444 142.889 64.4444C142.653 64.4444 142.427 64.3508 142.26 64.1841C142.094 64.0174 142 63.7913 142 63.5556V62.6667H141.111C140.875 62.6667 140.649 62.573 140.483 62.4063C140.316 62.2396 140.222 62.0135 140.222 61.7778C140.222 61.542 140.316 61.3159 140.483 61.1492C140.649 60.9825 140.875 60.8889 141.111 60.8889H142V60C142 59.7642 142.094 59.5382 142.26 59.3715C142.427 59.2048 142.653 59.1111 142.889 59.1111C143.125 59.1111 143.351 59.2048 143.517 59.3715C143.684 59.5382 143.778 59.7642 143.778 60V60.8889H144.667C144.902 60.8889 145.129 60.9825 145.295 61.1492C145.462 61.3159 145.556 61.542 145.556 61.7778Z"
            fill="#027DFD" />
    </g>
    <path clip-rule="evenodd" d="M99.6556 235H49.2183C36.171 234.944 23.6747 229.722 14.4547 220.473C5.23464 211.223 0.0387141 198.696 0 185.623C0.0388066 172.534 5.24562 159.992 14.4832 150.736C23.7208 141.481 36.2385 136.264 49.3024 136.225H88.3072C90.0305 132.203 94.8851 127.803 100.286 125.339C112.307 119.801 127.249 122.265 121.302 124.792C114.156 127.803 112.748 133.214 114.619 138.562C124.579 141.758 133.271 148.035 139.449 156.49C145.626 164.945 148.97 175.145 149 185.623C148.961 198.718 143.748 211.264 134.501 220.517C125.253 229.77 112.725 234.978 99.6556 235Z"
        fill="#353535"
        fill-rule="evenodd" />
    <path
        d="M35.157 181L37.541 169.8H41.285C42.0317 169.8 42.677 169.939 43.221 170.216C43.7757 170.493 44.2023 170.888 44.501 171.4C44.8103 171.901 44.965 172.493 44.965 173.176C44.965 173.912 44.773 174.579 44.389 175.176C44.005 175.763 43.4823 176.232 42.821 176.584C42.1597 176.925 41.413 177.096 40.581 177.096H38.677L37.845 181H35.157ZM39.141 174.904H40.357C40.7303 174.904 41.0557 174.84 41.333 174.712C41.6103 174.584 41.8237 174.408 41.973 174.184C42.133 173.949 42.213 173.677 42.213 173.368C42.213 172.963 42.0743 172.648 41.797 172.424C41.5303 172.189 41.1463 172.072 40.645 172.072H39.749L39.141 174.904ZM44.7508 181L45.1828 179H46.9748L47.8708 174.744H46.0788L46.5108 172.744H50.8948L50.4788 174.712C50.9161 173.955 51.3641 173.411 51.8228 173.08C52.2921 172.749 52.8094 172.584 53.3748 172.584C53.6841 172.584 53.9348 172.611 54.1267 172.664C54.3188 172.717 54.4948 172.803 54.6548 172.92L54.1428 175.32C54.0361 175.245 53.8761 175.176 53.6628 175.112C53.4494 175.037 53.2254 174.979 52.9908 174.936C52.7561 174.883 52.5481 174.856 52.3668 174.856C51.9934 174.856 51.6201 174.936 51.2468 175.096C50.8841 175.256 50.5481 175.496 50.2388 175.816L49.5668 179H51.4548L51.0228 181H44.7508ZM58.7445 181.16C58.0085 181.16 57.3472 180.995 56.7605 180.664C56.1738 180.323 55.7098 179.864 55.3685 179.288C55.0378 178.701 54.8725 178.04 54.8725 177.304C54.8725 176.653 54.9898 176.045 55.2245 175.48C55.4698 174.915 55.8005 174.419 56.2165 173.992C56.6432 173.555 57.1338 173.219 57.6885 172.984C58.2432 172.739 58.8405 172.616 59.4805 172.616C60.2272 172.616 60.8885 172.781 61.4645 173.112C62.0512 173.443 62.5098 173.896 62.8405 174.472C63.1818 175.048 63.3525 175.709 63.3525 176.456C63.3525 177.096 63.2298 177.704 62.9845 178.28C62.7498 178.845 62.4192 179.347 61.9925 179.784C61.5765 180.211 61.0858 180.547 60.5205 180.792C59.9658 181.037 59.3738 181.16 58.7445 181.16ZM58.8885 178.968C59.2725 178.968 59.6085 178.861 59.8965 178.648C60.1952 178.435 60.4298 178.147 60.6005 177.784C60.7712 177.411 60.8565 176.989 60.8565 176.52C60.8565 175.987 60.7178 175.565 60.4405 175.256C60.1632 174.936 59.7898 174.776 59.3205 174.776C58.9578 174.776 58.6272 174.883 58.3285 175.096C58.0405 175.309 57.8058 175.597 57.6245 175.96C57.4538 176.323 57.3685 176.728 57.3685 177.176C57.3685 177.731 57.5072 178.168 57.7845 178.488C58.0618 178.808 58.4298 178.968 58.8885 178.968ZM67.5863 184.504C66.9036 184.504 66.2476 184.397 65.6183 184.184C64.9996 183.981 64.4289 183.699 63.9062 183.336L64.9303 181.544C65.3889 181.843 65.8476 182.077 66.3063 182.248C66.7649 182.419 67.2076 182.504 67.6343 182.504C68.0396 182.504 68.3649 182.392 68.6102 182.168C68.8556 181.944 69.0263 181.613 69.1223 181.176L69.3463 180.088C69.0263 180.451 68.6903 180.701 68.3383 180.84C67.9969 180.979 67.6343 181.048 67.2503 181.048C66.7063 181.048 66.2156 180.883 65.7783 180.552C65.3516 180.221 65.0156 179.779 64.7703 179.224C64.5249 178.669 64.4023 178.056 64.4023 177.384C64.4023 176.755 64.5089 176.157 64.7223 175.592C64.9463 175.027 65.2503 174.531 65.6343 174.104C66.0183 173.667 66.4609 173.325 66.9623 173.08C67.4636 172.824 67.9969 172.696 68.5623 172.696C68.9996 172.696 69.4103 172.787 69.7943 172.968C70.1783 173.139 70.4876 173.384 70.7223 173.704L70.9303 172.744H73.4263L71.5703 181.464C71.3676 182.456 70.9089 183.208 70.1943 183.72C69.4903 184.243 68.6209 184.504 67.5863 184.504ZM68.3703 179.016C68.8503 179.016 69.2929 178.829 69.6983 178.456L70.3383 175.4C70.1569 175.197 69.9489 175.043 69.7143 174.936C69.4796 174.829 69.2236 174.776 68.9463 174.776C68.5516 174.776 68.1996 174.888 67.8903 175.112C67.5809 175.325 67.3356 175.619 67.1543 175.992C66.9729 176.355 66.8823 176.765 66.8823 177.224C66.8823 177.725 67.0103 178.152 67.2663 178.504C67.5223 178.845 67.8903 179.016 68.3703 179.016ZM78.172 181.176C77.372 181.176 76.6627 181.011 76.044 180.68C75.4253 180.349 74.94 179.891 74.588 179.304C74.236 178.707 74.06 178.029 74.06 177.272C74.06 176.643 74.1773 176.051 74.412 175.496C74.6573 174.931 74.9933 174.435 75.42 174.008C75.8467 173.571 76.3373 173.229 76.892 172.984C77.4573 172.739 78.0547 172.616 78.684 172.616C79.452 172.616 80.1187 172.771 80.684 173.08C81.26 173.389 81.708 173.821 82.028 174.376C82.348 174.931 82.508 175.576 82.508 176.312C82.508 176.557 82.4973 176.781 82.476 176.984C82.4653 177.176 82.444 177.357 82.412 177.528H76.524C76.5773 177.848 76.6947 178.131 76.876 178.376C77.0573 178.611 77.2867 178.797 77.564 178.936C77.852 179.064 78.1667 179.128 78.508 179.128C78.86 179.128 79.196 179.059 79.516 178.92C79.836 178.771 80.1293 178.568 80.396 178.312L81.644 179.768C81.196 180.227 80.6787 180.579 80.092 180.824C79.5053 181.059 78.8653 181.176 78.172 181.176ZM76.7 176.072H80.268C80.2253 175.773 80.1293 175.523 79.98 175.32C79.8307 175.107 79.6387 174.941 79.404 174.824C79.18 174.707 78.9133 174.648 78.604 174.648C78.316 174.648 78.044 174.707 77.788 174.824C77.5427 174.941 77.324 175.107 77.132 175.32C76.9507 175.533 76.8067 175.784 76.7 176.072ZM88.6298 181.112C87.4671 181.112 86.6244 180.813 86.1018 180.216C85.5898 179.619 85.4511 178.787 85.6858 177.72L86.3258 174.744H83.9098L84.3418 172.744H86.7418L87.2378 170.456L89.9418 169.928L89.3498 172.744H92.4698L92.0378 174.744H88.9178L88.3258 177.528C88.2191 178.051 88.2724 178.419 88.4858 178.632C88.6991 178.835 89.0671 178.936 89.5898 178.936C89.8351 178.936 90.0964 178.915 90.3738 178.872C90.6618 178.829 90.9551 178.765 91.2538 178.68L90.8058 180.776C90.5498 180.872 90.2084 180.952 89.7818 181.016C89.3551 181.08 88.9711 181.112 88.6298 181.112ZM98.2235 181.112C97.0608 181.112 96.2182 180.813 95.6955 180.216C95.1835 179.619 95.0448 178.787 95.2795 177.72L95.9195 174.744H93.5035L93.9355 172.744H96.3355L96.8315 170.456L99.5355 169.928L98.9435 172.744H102.064L101.632 174.744H98.5115L97.9195 177.528C97.8128 178.051 97.8662 178.419 98.0795 178.632C98.2928 178.835 98.6608 178.936 99.1835 178.936C99.4288 178.936 99.6902 178.915 99.9675 178.872C100.256 178.829 100.549 178.765 100.848 178.68L100.4 180.776C100.144 180.872 99.8022 180.952 99.3755 181.016C98.9488 181.08 98.5648 181.112 98.2235 181.112ZM106.713 181.16C105.977 181.16 105.316 180.995 104.729 180.664C104.143 180.323 103.679 179.864 103.337 179.288C103.007 178.701 102.841 178.04 102.841 177.304C102.841 176.653 102.959 176.045 103.193 175.48C103.439 174.915 103.769 174.419 104.185 173.992C104.612 173.555 105.103 173.219 105.657 172.984C106.212 172.739 106.809 172.616 107.449 172.616C108.196 172.616 108.857 172.781 109.433 173.112C110.02 173.443 110.479 173.896 110.809 174.472C111.151 175.048 111.321 175.709 111.321 176.456C111.321 177.096 111.199 177.704 110.953 178.28C110.719 178.845 110.388 179.347 109.961 179.784C109.545 180.211 109.055 180.547 108.489 180.792C107.935 181.037 107.343 181.16 106.713 181.16ZM106.857 178.968C107.241 178.968 107.577 178.861 107.865 178.648C108.164 178.435 108.399 178.147 108.569 177.784C108.74 177.411 108.825 176.989 108.825 176.52C108.825 175.987 108.687 175.565 108.409 175.256C108.132 174.936 107.759 174.776 107.289 174.776C106.927 174.776 106.596 174.883 106.297 175.096C106.009 175.309 105.775 175.597 105.593 175.96C105.423 176.323 105.337 176.728 105.337 177.176C105.337 177.731 105.476 178.168 105.753 178.488C106.031 178.808 106.399 178.968 106.857 178.968ZM32.4721 200L33.8161 193.744H31.3841L31.8161 191.744H34.2481L34.4721 190.688C34.6855 189.675 35.1228 188.912 35.7841 188.4C36.4455 187.877 37.3148 187.616 38.3921 187.616C38.7655 187.616 39.1708 187.653 39.6081 187.728C40.0561 187.803 40.4295 187.899 40.7281 188.016L40.2641 190.16C39.9228 190.032 39.6028 189.947 39.3041 189.904C39.0055 189.851 38.7228 189.824 38.4561 189.824C37.9975 189.824 37.6561 189.925 37.4321 190.128C37.2081 190.32 37.0428 190.661 36.9361 191.152L36.8081 191.744H39.9921L39.5601 193.744H36.3921L35.0641 200H32.4721ZM39.9539 200L40.3859 198H42.1779L43.0739 193.744H41.2819L41.7139 191.744H46.0979L45.6819 193.712C46.1192 192.955 46.5672 192.411 47.0259 192.08C47.4952 191.749 48.0125 191.584 48.5779 191.584C48.8872 191.584 49.1379 191.611 49.3299 191.664C49.5219 191.717 49.6979 191.803 49.8579 191.92L49.3459 194.32C49.2392 194.245 49.0792 194.176 48.8659 194.112C48.6525 194.037 48.4285 193.979 48.1939 193.936C47.9592 193.883 47.7512 193.856 47.5699 193.856C47.1965 193.856 46.8232 193.936 46.4499 194.096C46.0872 194.256 45.7512 194.496 45.4419 194.816L44.7699 198H46.6579L46.2259 200H39.9539ZM54.1876 200.176C53.3876 200.176 52.6783 200.011 52.0596 199.68C51.441 199.349 50.9556 198.891 50.6036 198.304C50.2516 197.707 50.0756 197.029 50.0756 196.272C50.0756 195.643 50.193 195.051 50.4276 194.496C50.673 193.931 51.009 193.435 51.4356 193.008C51.8623 192.571 52.353 192.229 52.9076 191.984C53.473 191.739 54.0703 191.616 54.6996 191.616C55.4676 191.616 56.1343 191.771 56.6996 192.08C57.2756 192.389 57.7236 192.821 58.0436 193.376C58.3636 193.931 58.5236 194.576 58.5236 195.312C58.5236 195.557 58.513 195.781 58.4916 195.984C58.481 196.176 58.4596 196.357 58.4276 196.528H52.5396C52.593 196.848 52.7103 197.131 52.8916 197.376C53.073 197.611 53.3023 197.797 53.5796 197.936C53.8676 198.064 54.1823 198.128 54.5236 198.128C54.8756 198.128 55.2116 198.059 55.5316 197.92C55.8516 197.771 56.145 197.568 56.4116 197.312L57.6596 198.768C57.2116 199.227 56.6943 199.579 56.1076 199.824C55.521 200.059 54.881 200.176 54.1876 200.176ZM52.7156 195.072H56.2836C56.241 194.773 56.145 194.523 55.9956 194.32C55.8463 194.107 55.6543 193.941 55.4196 193.824C55.1956 193.707 54.929 193.648 54.6196 193.648C54.3316 193.648 54.0596 193.707 53.8036 193.824C53.5583 193.941 53.3396 194.107 53.1476 194.32C52.9663 194.533 52.8223 194.784 52.7156 195.072ZM63.7814 200.176C62.9814 200.176 62.272 200.011 61.6534 199.68C61.0347 199.349 60.5494 198.891 60.1974 198.304C59.8454 197.707 59.6694 197.029 59.6694 196.272C59.6694 195.643 59.7867 195.051 60.0214 194.496C60.2667 193.931 60.6027 193.435 61.0294 193.008C61.456 192.571 61.9467 192.229 62.5014 191.984C63.0667 191.739 63.664 191.616 64.2934 191.616C65.0614 191.616 65.728 191.771 66.2934 192.08C66.8694 192.389 67.3174 192.821 67.6374 193.376C67.9574 193.931 68.1174 194.576 68.1174 195.312C68.1174 195.557 68.1067 195.781 68.0854 195.984C68.0747 196.176 68.0534 196.357 68.0214 196.528H62.1334C62.1867 196.848 62.304 197.131 62.4854 197.376C62.6667 197.611 62.896 197.797 63.1734 197.936C63.4614 198.064 63.776 198.128 64.1174 198.128C64.4694 198.128 64.8054 198.059 65.1254 197.92C65.4454 197.771 65.7387 197.568 66.0054 197.312L67.2534 198.768C66.8054 199.227 66.288 199.579 65.7014 199.824C65.1147 200.059 64.4747 200.176 63.7814 200.176ZM62.3094 195.072H65.8774C65.8347 194.773 65.7387 194.523 65.5894 194.32C65.44 194.107 65.248 193.941 65.0134 193.824C64.7894 193.707 64.5227 193.648 64.2134 193.648C63.9254 193.648 63.6534 193.707 63.3974 193.824C63.152 193.941 62.9334 194.107 62.7414 194.32C62.56 194.533 62.416 194.784 62.3094 195.072ZM74.4311 200.112C73.3431 200.112 72.5538 199.803 72.0631 199.184C71.5725 198.565 71.4551 197.664 71.7111 196.48L73.0231 190.368H70.1751L70.6071 188.368H76.0471L74.3191 196.512C74.2125 197.035 74.2498 197.403 74.4311 197.616C74.6125 197.829 74.9165 197.936 75.3431 197.936C75.5885 197.936 75.8338 197.92 76.0791 197.888C76.3245 197.845 76.5858 197.776 76.8631 197.68L76.4151 199.776C76.2125 199.872 75.9191 199.952 75.5351 200.016C75.1511 200.08 74.7831 200.112 74.4311 200.112ZM81.3849 200.064C80.6062 200.064 79.9875 199.867 79.5289 199.472C79.0702 199.067 78.8409 198.523 78.8409 197.84C78.8409 197.285 78.9742 196.811 79.2409 196.416C79.5075 196.021 79.8915 195.717 80.3929 195.504C80.8942 195.291 81.4915 195.184 82.1849 195.184C82.5369 195.184 82.8889 195.227 83.2409 195.312C83.6035 195.387 83.9449 195.493 84.2649 195.632L84.3609 195.168C84.4675 194.677 84.3875 194.315 84.1209 194.08C83.8542 193.845 83.3955 193.728 82.7449 193.728C82.4675 193.728 82.1582 193.76 81.8169 193.824C81.4862 193.888 81.0969 193.995 80.6489 194.144L80.0729 192.32C80.7235 192.085 81.3209 191.915 81.8649 191.808C82.4195 191.691 82.9422 191.632 83.4329 191.632C84.3075 191.632 85.0275 191.776 85.5929 192.064C86.1689 192.341 86.5689 192.741 86.7929 193.264C87.0169 193.787 87.0489 194.416 86.8889 195.152L85.8329 200H83.3209L83.4809 199.296C83.0862 199.573 82.7289 199.771 82.4089 199.888C82.0889 200.005 81.7475 200.064 81.3849 200.064ZM81.1609 197.6C81.1609 197.835 81.2675 198.027 81.4809 198.176C81.7049 198.325 82.0142 198.4 82.4089 198.4C82.6542 198.4 82.8835 198.373 83.0969 198.32C83.3209 198.256 83.5342 198.165 83.7369 198.048L83.9769 196.928C83.7742 196.864 83.5502 196.811 83.3049 196.768C83.0595 196.725 82.7982 196.704 82.5209 196.704C82.0835 196.704 81.7475 196.779 81.5129 196.928C81.2782 197.077 81.1609 197.301 81.1609 197.6ZM87.9546 200L89.7466 191.744H92.2906L92.0186 193.024C92.4026 192.576 92.824 192.235 93.2826 192C93.7413 191.765 94.2213 191.648 94.7226 191.648C95.2773 191.648 95.736 191.776 96.0986 192.032C96.472 192.277 96.728 192.624 96.8666 193.072C97.0053 193.509 97.0106 194.021 96.8826 194.608L95.7306 200H93.1866L94.2106 195.248C94.3173 194.779 94.2693 194.395 94.0666 194.096C93.864 193.797 93.544 193.648 93.1066 193.648C92.616 193.648 92.1626 193.856 91.7466 194.272L90.4986 200H87.9546ZM102.14 200.176C101.362 200.176 100.668 200.016 100.06 199.696C99.4524 199.365 98.9724 198.917 98.6204 198.352C98.279 197.776 98.1084 197.125 98.1084 196.4C98.1084 195.728 98.231 195.104 98.4764 194.528C98.7217 193.952 99.0577 193.445 99.4844 193.008C99.9217 192.571 100.423 192.229 100.988 191.984C101.564 191.739 102.183 191.616 102.844 191.616C103.762 191.616 104.556 191.819 105.228 192.224C105.9 192.619 106.396 193.125 106.716 193.744L104.7 195.088C104.53 194.747 104.279 194.453 103.948 194.208C103.618 193.963 103.223 193.84 102.764 193.84C102.338 193.84 101.964 193.941 101.644 194.144C101.324 194.347 101.074 194.619 100.892 194.96C100.722 195.301 100.636 195.685 100.636 196.112C100.636 196.485 100.716 196.816 100.876 197.104C101.036 197.381 101.255 197.595 101.532 197.744C101.82 197.893 102.14 197.968 102.492 197.968C102.898 197.968 103.26 197.877 103.58 197.696C103.911 197.504 104.21 197.248 104.476 196.928L106.028 198.304C105.57 198.912 105.01 199.376 104.348 199.696C103.687 200.016 102.951 200.176 102.14 200.176ZM111.75 200.176C110.95 200.176 110.241 200.011 109.622 199.68C109.003 199.349 108.518 198.891 108.166 198.304C107.814 197.707 107.638 197.029 107.638 196.272C107.638 195.643 107.755 195.051 107.99 194.496C108.235 193.931 108.571 193.435 108.998 193.008C109.425 192.571 109.915 192.229 110.47 191.984C111.035 191.739 111.633 191.616 112.262 191.616C113.03 191.616 113.697 191.771 114.262 192.08C114.838 192.389 115.286 192.821 115.606 193.376C115.926 193.931 116.086 194.576 116.086 195.312C116.086 195.557 116.075 195.781 116.054 195.984C116.043 196.176 116.022 196.357 115.99 196.528H110.102C110.155 196.848 110.273 197.131 110.454 197.376C110.635 197.611 110.865 197.797 111.142 197.936C111.43 198.064 111.745 198.128 112.086 198.128C112.438 198.128 112.774 198.059 113.094 197.92C113.414 197.771 113.707 197.568 113.974 197.312L115.222 198.768C114.774 199.227 114.257 199.579 113.67 199.824C113.083 200.059 112.443 200.176 111.75 200.176ZM110.278 195.072H113.846C113.803 194.773 113.707 194.523 113.558 194.32C113.409 194.107 113.217 193.941 112.982 193.824C112.758 193.707 112.491 193.648 112.182 193.648C111.894 193.648 111.622 193.707 111.366 193.824C111.121 193.941 110.902 194.107 110.71 194.32C110.529 194.533 110.385 194.784 110.278 195.072Z"
        fill="white" />
    <path clip-rule="evenodd" d="M255.351 0H304.773C317.557 0.0545412 329.802 5.18414 338.836 14.2702C347.871 23.3562 352.962 35.6616 353 48.503C352.962 61.3605 347.86 73.6805 338.808 82.7722C329.757 91.8639 317.491 96.9884 304.69 97.0266H266.471C264.782 100.977 260.025 105.3 254.733 107.72C242.954 113.16 228.313 110.74 234.141 108.258C241.142 105.3 242.522 99.9844 240.689 94.7307C230.93 91.5913 222.412 85.426 216.359 77.1203C210.306 68.8147 207.03 58.7959 207 48.503C207.038 35.6402 212.146 23.3161 221.207 14.2265C230.269 5.13697 242.545 0.0218186 255.351 0Z"
        fill="#353535"
        fill-rule="evenodd" />
    <path
        d="M233.151 54L238.751 42.8H241.919L242.751 54H240.031L239.935 51.808H236.847L235.807 54H233.151ZM237.855 49.68H239.855L239.695 45.824L237.855 49.68ZM248.153 54.176C247.396 54.176 246.644 54.0427 245.897 53.776C245.161 53.4987 244.542 53.1413 244.041 52.704L245.241 51.008C245.785 51.4667 246.308 51.792 246.809 51.984C247.31 52.176 247.796 52.272 248.265 52.272C248.617 52.272 248.905 52.208 249.129 52.08C249.353 51.952 249.465 51.7867 249.465 51.584C249.465 51.3707 249.358 51.216 249.145 51.12C248.932 51.0133 248.654 50.9333 248.313 50.88C247.982 50.816 247.625 50.7467 247.241 50.672C246.868 50.5867 246.51 50.464 246.169 50.304C245.838 50.1333 245.566 49.8933 245.353 49.584C245.14 49.264 245.033 48.8373 245.033 48.304C245.033 47.4827 245.332 46.8267 245.929 46.336C246.526 45.8453 247.369 45.6 248.457 45.6C249.182 45.6 249.87 45.7227 250.521 45.968C251.182 46.2133 251.769 46.5493 252.281 46.976L251.065 48.576C250.617 48.224 250.164 47.952 249.705 47.76C249.246 47.568 248.798 47.472 248.361 47.472C247.998 47.472 247.726 47.5253 247.545 47.632C247.364 47.728 247.273 47.872 247.273 48.064C247.273 48.2667 247.38 48.4213 247.593 48.528C247.817 48.624 248.1 48.7093 248.441 48.784C248.793 48.848 249.161 48.928 249.545 49.024C249.94 49.1093 250.308 49.2373 250.649 49.408C251.001 49.5787 251.284 49.8133 251.497 50.112C251.721 50.4107 251.833 50.8053 251.833 51.296C251.833 51.8613 251.668 52.3627 251.337 52.8C251.017 53.2267 250.58 53.5627 250.025 53.808C249.47 54.0533 248.846 54.176 248.153 54.176ZM257.747 54.176C256.989 54.176 256.237 54.0427 255.491 53.776C254.755 53.4987 254.136 53.1413 253.635 52.704L254.835 51.008C255.379 51.4667 255.901 51.792 256.403 51.984C256.904 52.176 257.389 52.272 257.859 52.272C258.211 52.272 258.499 52.208 258.723 52.08C258.947 51.952 259.059 51.7867 259.059 51.584C259.059 51.3707 258.952 51.216 258.739 51.12C258.525 51.0133 258.248 50.9333 257.907 50.88C257.576 50.816 257.219 50.7467 256.835 50.672C256.461 50.5867 256.104 50.464 255.763 50.304C255.432 50.1333 255.16 49.8933 254.947 49.584C254.733 49.264 254.627 48.8373 254.627 48.304C254.627 47.4827 254.925 46.8267 255.523 46.336C256.12 45.8453 256.963 45.6 258.051 45.6C258.776 45.6 259.464 45.7227 260.115 45.968C260.776 46.2133 261.363 46.5493 261.875 46.976L260.659 48.576C260.211 48.224 259.757 47.952 259.299 47.76C258.84 47.568 258.392 47.472 257.955 47.472C257.592 47.472 257.32 47.5253 257.139 47.632C256.957 47.728 256.867 47.872 256.867 48.064C256.867 48.2667 256.973 48.4213 257.187 48.528C257.411 48.624 257.693 48.7093 258.035 48.784C258.387 48.848 258.755 48.928 259.139 49.024C259.533 49.1093 259.901 49.2373 260.243 49.408C260.595 49.5787 260.877 49.8133 261.091 50.112C261.315 50.4107 261.427 50.8053 261.427 51.296C261.427 51.8613 261.261 52.3627 260.931 52.8C260.611 53.2267 260.173 53.5627 259.619 53.808C259.064 54.0533 258.44 54.176 257.747 54.176ZM265.581 54.096C265.026 54.096 264.562 53.9733 264.189 53.728C263.826 53.472 263.575 53.1253 263.437 52.688C263.298 52.24 263.293 51.7227 263.421 51.136L264.573 45.744H267.117L266.093 50.496C265.986 50.9653 266.034 51.3493 266.237 51.648C266.45 51.9467 266.77 52.096 267.197 52.096C267.687 52.096 268.141 51.888 268.557 51.472L269.805 45.744H272.349L270.557 54H268.013L268.285 52.72C267.901 53.168 267.479 53.5093 267.021 53.744C266.562 53.9787 266.082 54.096 265.581 54.096ZM272.47 54L274.262 45.744H276.806L276.534 47.024C276.918 46.576 277.34 46.2347 277.798 46C278.257 45.7653 278.737 45.648 279.238 45.648C279.793 45.648 280.252 45.776 280.614 46.032C280.988 46.2773 281.244 46.624 281.382 47.072C281.521 47.5093 281.526 48.0213 281.398 48.608L280.246 54H277.702L278.726 49.248C278.833 48.7787 278.785 48.3947 278.582 48.096C278.38 47.7973 278.06 47.648 277.622 47.648C277.132 47.648 276.678 47.856 276.262 48.272L275.014 54H272.47ZM282 54L282.384 52.192L287.52 47.888L283.36 47.92L283.808 45.744H291.472L291.088 47.552L285.92 51.872L290.272 51.84L289.808 54H282ZM297.658 44.464C297.252 44.464 296.911 44.3307 296.634 44.064C296.367 43.7867 296.234 43.4507 296.234 43.056C296.234 42.7253 296.314 42.4267 296.474 42.16C296.644 41.8827 296.868 41.6587 297.146 41.488C297.423 41.3173 297.716 41.232 298.026 41.232C298.431 41.232 298.772 41.3707 299.05 41.648C299.327 41.9147 299.466 42.2507 299.466 42.656C299.466 42.9867 299.38 43.2907 299.21 43.568C299.05 43.8347 298.831 44.0533 298.554 44.224C298.287 44.384 297.988 44.464 297.658 44.464ZM297.626 54.112C296.538 54.112 295.743 53.8027 295.242 53.184C294.751 52.5653 294.639 51.664 294.906 50.48L295.514 47.744H292.666L293.098 45.744H298.538L297.514 50.512C297.407 51.0347 297.444 51.4027 297.626 51.616C297.807 51.8293 298.111 51.936 298.538 51.936C298.783 51.936 299.028 51.92 299.274 51.888C299.519 51.8453 299.78 51.776 300.058 51.68L299.61 53.776C299.407 53.872 299.114 53.952 298.73 54.016C298.346 54.08 297.978 54.112 297.626 54.112ZM305.62 54.16C304.884 54.16 304.222 53.9947 303.636 53.664C303.049 53.3227 302.585 52.864 302.243 52.288C301.913 51.7013 301.748 51.04 301.748 50.304C301.748 49.6533 301.865 49.0453 302.1 48.48C302.345 47.9147 302.676 47.4187 303.092 46.992C303.518 46.5547 304.009 46.2187 304.564 45.984C305.118 45.7387 305.716 45.616 306.356 45.616C307.102 45.616 307.764 45.7813 308.34 46.112C308.926 46.4427 309.385 46.896 309.716 47.472C310.057 48.048 310.227 48.7093 310.227 49.456C310.227 50.096 310.105 50.704 309.86 51.28C309.625 51.8453 309.294 52.3467 308.868 52.784C308.452 53.2107 307.961 53.5467 307.396 53.792C306.841 54.0373 306.249 54.16 305.62 54.16ZM305.764 51.968C306.148 51.968 306.484 51.8613 306.772 51.648C307.07 51.4347 307.305 51.1467 307.476 50.784C307.646 50.4107 307.732 49.9893 307.732 49.52C307.732 48.9867 307.593 48.5653 307.316 48.256C307.038 47.936 306.665 47.776 306.196 47.776C305.833 47.776 305.502 47.8827 305.204 48.096C304.916 48.3093 304.681 48.5973 304.5 48.96C304.329 49.3227 304.244 49.728 304.244 50.176C304.244 50.7307 304.382 51.168 304.66 51.488C304.937 51.808 305.305 51.968 305.764 51.968ZM310.845 54L312.637 45.744H315.181L314.909 47.024C315.293 46.576 315.715 46.2347 316.173 46C316.632 45.7653 317.112 45.648 317.613 45.648C318.168 45.648 318.627 45.776 318.989 46.032C319.363 46.2773 319.619 46.624 319.757 47.072C319.896 47.5093 319.901 48.0213 319.773 48.608L318.621 54H316.077L317.101 49.248C317.208 48.7787 317.16 48.3947 316.957 48.096C316.755 47.7973 316.435 47.648 315.997 47.648C315.507 47.648 315.053 47.856 314.637 48.272L313.389 54H310.845ZM325.047 54.176C324.247 54.176 323.538 54.0107 322.919 53.68C322.3 53.3493 321.815 52.8907 321.463 52.304C321.111 51.7067 320.935 51.0293 320.935 50.272C320.935 49.6427 321.052 49.0507 321.287 48.496C321.532 47.9307 321.868 47.4347 322.295 47.008C322.722 46.5707 323.212 46.2293 323.767 45.984C324.332 45.7387 324.93 45.616 325.559 45.616C326.327 45.616 326.994 45.7707 327.559 46.08C328.135 46.3893 328.583 46.8213 328.903 47.376C329.223 47.9307 329.383 48.576 329.383 49.312C329.383 49.5573 329.372 49.7813 329.351 49.984C329.34 50.176 329.319 50.3573 329.287 50.528H323.399C323.452 50.848 323.57 51.1307 323.751 51.376C323.932 51.6107 324.162 51.7973 324.439 51.936C324.727 52.064 325.042 52.128 325.383 52.128C325.735 52.128 326.071 52.0587 326.391 51.92C326.711 51.7707 327.004 51.568 327.271 51.312L328.519 52.768C328.071 53.2267 327.554 53.5787 326.967 53.824C326.38 54.0587 325.74 54.176 325.047 54.176ZM323.575 49.072H327.143C327.1 48.7733 327.004 48.5227 326.855 48.32C326.706 48.1067 326.514 47.9413 326.279 47.824C326.055 47.7067 325.788 47.648 325.479 47.648C325.191 47.648 324.919 47.7067 324.663 47.824C324.418 47.9413 324.199 48.1067 324.007 48.32C323.826 48.5333 323.682 48.784 323.575 49.072Z"
        fill="white" />
    <g clip-path="url(#clip0_0_1)">
        <path clip-rule="evenodd" d="M153.405 175.369C152.988 175.259 158.968 179.422 159.505 181.268C159.571 181.637 159.558 182.017 159.467 182.381C159.375 182.745 159.208 183.085 158.976 183.38C158.744 183.675 158.452 183.917 158.119 184.09C157.787 184.264 157.422 184.365 157.047 184.387C156.433 184.464 156.016 185.892 155.138 186.101C154.261 186.31 152.439 185.068 152.362 185.2C151.265 186.947 145.944 181.18 145.669 175.556C145.527 172.733 146.415 162.298 146.832 158.398C149.027 138.626 154.513 93.447 167.767 77.6514C168.865 76.3223 169.687 78.2336 170.598 78.4423C172.036 78.7828 173.352 79.6725 174.844 84.6485C176.413 89.9101 174.23 102.564 169.764 105.519C165.99 124.654 156.411 154.312 163.027 174.446C163.73 176.643 161.755 178.84 160.098 178.126C159.001 177.654 158.112 176.544 156.894 172.854C156.587 171.942 154.82 168.339 154.173 168.032C152.681 167.219 153.076 173.216 153.405 175.413"
            fill="#60C9F8"
            fill-rule="evenodd" />
        <path
            d="M157.069 184.387C160.054 184.541 160.438 180.784 158.057 179.016C154.985 176.731 153.163 176.017 152.889 170.92"
            stroke="black" stroke-linecap="round" stroke-linejoin="round" stroke-width="0.57" />
        <path
            d="M152.681 174.106C152.679 176.453 153.172 178.774 154.129 180.916C155.643 184.53 150.629 188.605 147.227 180.752C145.79 177.456 145.494 173.062 145.867 166.669C147.03 154.971 152.538 99.126 166.714 78.7938"
            stroke="black" stroke-linecap="round" stroke-linejoin="round" stroke-width="0.57" />
        <path
            d="M152.746 175.369C152.45 173.172 152.955 167.175 154.447 167.988C155.094 168.295 156.554 171.887 156.85 172.81C158.079 176.501 158.671 177.588 159.747 178.082C162.413 179.313 163.73 176.632 163.148 174.787C161.176 169.075 160.301 163.041 160.57 157.003C161.03 140.68 165.968 121.337 169.106 105.453"
            stroke="black" stroke-linecap="round" stroke-linejoin="round" stroke-width="0.57" />
        <path d="M155.193 168.998C154.743 167.9 153.745 166.318 152.22 167.845" stroke="black"
            stroke-linecap="round" stroke-linejoin="round" stroke-width="0.57" />
        <path
            d="M152.362 185.2C156.225 187.99 158.419 183.849 156.257 181.213C153.833 178.247 152.67 176.522 152.735 172.206"
            stroke="black" stroke-linecap="round" stroke-linejoin="round" stroke-width="0.57" />
        <path clip-rule="evenodd" d="M160.734 224.7H183.776C183.96 224.706 184.136 224.782 184.266 224.912C184.397 225.043 184.473 225.219 184.478 225.403L185.575 240.957H148.676C147.984 234.444 152.746 232.477 158.364 229.676C160.559 228.062 160.734 224.7 160.734 224.7Z"
            fill="#60C9F8"
            fill-rule="evenodd" />
        <path
            d="M160.734 224.7H183.776C183.96 224.706 184.136 224.782 184.266 224.912C184.397 225.043 184.473 225.219 184.478 225.403L185.575 240.957H148.676C147.984 234.444 152.746 232.477 158.364 229.676C160.559 228.062 160.734 224.7 160.734 224.7Z"
            stroke="black" stroke-linecap="round" stroke-linejoin="round" stroke-width="0.57" />
        <path
            d="M185.959 238.475H148.676C148.288 238.475 147.974 238.79 147.974 239.178V242.506C147.974 242.894 148.288 243.209 148.676 243.209H185.959C186.347 243.209 186.662 242.894 186.662 242.506V239.178C186.662 238.79 186.347 238.475 185.959 238.475Z"
            fill="#60C9F8" />
        <path
            d="M185.959 238.475H148.676C148.288 238.475 147.974 238.79 147.974 239.178V242.506C147.974 242.894 148.288 243.209 148.676 243.209H185.959C186.347 243.209 186.662 242.894 186.662 242.506V239.178C186.662 238.79 186.347 238.475 185.959 238.475Z"
            stroke="black" stroke-linecap="round" stroke-linejoin="round" stroke-width="0.57" />
        <path clip-rule="evenodd" d="M183.403 224.7H206.444C206.629 224.706 206.804 224.782 206.935 224.912C207.065 225.043 207.141 225.219 207.147 225.403L208.244 240.957H171.333C170.642 234.444 175.404 232.477 181.022 229.676C183.249 228.062 183.403 224.7 183.403 224.7Z"
            fill="#60C9F8"
            fill-rule="evenodd" />
        <path
            d="M183.403 224.7H206.444C206.629 224.706 206.804 224.782 206.935 224.912C207.065 225.043 207.141 225.219 207.147 225.403L208.244 240.957H171.333C170.642 234.444 175.404 232.477 181.022 229.676C183.249 228.062 183.403 224.7 183.403 224.7Z"
            stroke="black" stroke-linecap="round" stroke-linejoin="round" stroke-width="0.57" />
        <path
            d="M208.65 238.475H171.366C170.978 238.475 170.664 238.79 170.664 239.178V242.506C170.664 242.894 170.978 243.209 171.366 243.209H208.65C209.038 243.209 209.352 242.894 209.352 242.506V239.178C209.352 238.79 209.038 238.475 208.65 238.475Z"
            fill="#60C9F8" />
        <path
            d="M208.65 238.475H171.366C170.978 238.475 170.664 238.79 170.664 239.178V242.506C170.664 242.894 170.978 243.209 171.366 243.209H208.65C209.038 243.209 209.352 242.894 209.352 242.506V239.178C209.352 238.79 209.038 238.475 208.65 238.475Z"
            stroke="black" stroke-linecap="round" stroke-linejoin="round" stroke-width="0.57" />
        <path clip-rule="evenodd" d="M167.219 48.268C167.219 57.6707 167.219 57.5059 167.219 66.9416C167.219 91.7774 155.939 97.017 155.237 122.556C155.105 127.224 159.275 126.642 159.988 132.914C165.255 134.199 179.354 129.048 184.621 130.322C189.865 129.048 203.734 139.483 208.99 138.198C218.185 97.5772 198.764 89.6794 198.764 68.5453V48.268C198.764 27.4634 167.241 28.1774 167.219 48.268Z"
            fill="#60C9F8"
            fill-rule="evenodd" />
        <path
            d="M167.219 48.268C167.219 57.6707 167.219 57.5059 167.219 66.9416C167.219 91.7774 155.939 97.017 155.237 122.556C155.105 127.224 159.275 126.642 159.988 132.914C165.255 134.199 179.354 129.048 184.621 130.322C189.865 129.048 203.734 139.483 208.99 138.198C218.185 97.5772 198.764 89.6794 198.764 68.5453V48.268C198.764 27.4634 167.241 28.1774 167.219 48.268Z"
            stroke="black" stroke-linecap="round" stroke-linejoin="round" stroke-width="0.57" />
        <path clip-rule="evenodd" d="M167.219 48.268C167.219 57.6707 167.219 57.5059 167.219 66.9416C167.228 69.7053 167.074 72.4672 166.758 75.2128H199.422C198.995 73.0419 198.778 70.8348 198.775 68.6222V48.3449C198.764 27.4634 167.241 28.1774 167.219 48.268Z"
            fill="#60C9F8"
            fill-rule="evenodd" />
        <path
            d="M167.219 48.268C167.219 57.6707 167.219 57.5059 167.219 66.9416C167.228 69.7053 167.074 72.4672 166.758 75.2128H199.422C198.995 73.0419 198.778 70.8348 198.775 68.6222V48.3449C198.764 27.4634 167.241 28.1774 167.219 48.268Z"
            stroke="black" stroke-linecap="round" stroke-linejoin="round" stroke-width="0.57" />
        <path clip-rule="evenodd" d="M198.698 46.6093C197.14 28.0676 168.963 28.6717 167.296 46.6093H198.698Z"
            fill="#60C9F8"
            fill-rule="evenodd" />
        <path d="M198.698 46.6093C197.14 28.0676 168.963 28.6717 167.296 46.6093H198.698Z"
            stroke="black" stroke-linecap="round" stroke-linejoin="round" stroke-width="0.57" />
        <path clip-rule="evenodd" d="M211.119 121.831C211.119 122.062 211.119 122.292 211.174 122.512C211.371 133.134 207.948 138.989 207.97 148.688C208.035 169.723 208.606 223.811 208.54 224.898H159.439C159.439 224.898 159.012 169.866 159.308 149.237C159.472 138.253 156.29 135.1 155.105 122.633C155.089 122.366 155.089 122.098 155.105 121.831H211.119Z"
            fill="#60C9F8"
            fill-rule="evenodd" />
        <path
            d="M211.119 121.831C211.119 122.062 211.119 122.292 211.174 122.512C211.371 133.134 207.948 138.989 207.97 148.688C208.035 169.723 208.606 223.811 208.54 224.898H159.439C159.439 224.898 159.012 169.866 159.308 149.237C159.472 138.253 156.29 135.1 155.105 122.633C155.089 122.366 155.089 122.098 155.105 121.831H211.119Z"
            stroke="black" stroke-linecap="round" stroke-linejoin="round" stroke-width="0.57" />
        <path clip-rule="evenodd" d="M168.612 59.2195C168.977 59.2217 169.335 59.1153 169.639 58.9138C169.944 58.7124 170.182 58.4249 170.323 58.0879C170.464 57.7509 170.502 57.3795 170.432 57.0209C170.362 56.6622 170.188 56.3323 169.93 56.0731C169.673 55.814 169.345 55.6371 168.987 55.565C168.629 55.4929 168.258 55.5288 167.92 55.6681C167.583 55.8075 167.294 56.044 167.091 56.3477C166.888 56.6514 166.78 57.0086 166.78 57.3741C166.778 57.6159 166.825 57.8556 166.916 58.0795C167.008 58.3033 167.142 58.5068 167.313 58.6783C167.483 58.8498 167.685 58.9859 167.908 59.0788C168.131 59.1717 168.371 59.2195 168.612 59.2195Z"
            fill="white"
            fill-rule="evenodd" />
        <path
            d="M168.612 59.2195C168.977 59.2217 169.335 59.1153 169.639 58.9138C169.944 58.7124 170.182 58.4249 170.323 58.0879C170.464 57.7509 170.502 57.3795 170.432 57.0209C170.362 56.6622 170.188 56.3323 169.93 56.0731C169.673 55.814 169.345 55.6371 168.987 55.565C168.629 55.4929 168.258 55.5288 167.92 55.6681C167.583 55.8075 167.294 56.044 167.091 56.3477C166.888 56.6514 166.78 57.0086 166.78 57.3741C166.778 57.6159 166.825 57.8556 166.916 58.0795C167.008 58.3033 167.142 58.5068 167.313 58.6783C167.483 58.8498 167.685 58.9859 167.908 59.0788C168.131 59.1717 168.371 59.2195 168.612 59.2195Z"
            stroke="black" stroke-linecap="round" stroke-linejoin="round" stroke-width="0.57" />
        <path clip-rule="evenodd" d="M184.006 55.5397C183.641 55.5375 183.283 55.6442 182.978 55.8461C182.673 56.048 182.435 56.3361 182.294 56.6738C182.154 57.0114 182.116 57.3834 182.187 57.7424C182.258 58.1014 182.433 58.4312 182.692 58.6899C182.95 58.9487 183.28 59.1247 183.638 59.1955C183.997 59.2664 184.369 59.2289 184.706 59.0879C185.043 58.9468 185.331 58.7086 185.533 58.4034C185.734 58.0983 185.841 57.74 185.839 57.3741C185.839 56.8876 185.646 56.421 185.302 56.077C184.958 55.733 184.492 55.5397 184.006 55.5397Z"
            fill="white"
            fill-rule="evenodd" />
        <path
            d="M184.006 55.5397C183.641 55.5375 183.283 55.6442 182.978 55.8461C182.673 56.048 182.435 56.3361 182.294 56.6738C182.154 57.0114 182.116 57.3834 182.187 57.7424C182.258 58.1014 182.433 58.4312 182.692 58.6899C182.95 58.9487 183.28 59.1247 183.638 59.1955C183.997 59.2664 184.369 59.2289 184.706 59.0879C185.043 58.9468 185.331 58.7086 185.533 58.4034C185.734 58.0983 185.841 57.74 185.839 57.3741C185.839 56.8876 185.646 56.421 185.302 56.077C184.958 55.733 184.492 55.5397 184.006 55.5397Z"
            stroke="black" stroke-linecap="round" stroke-linejoin="round" stroke-width="0.57" />
        <path d="M183.205 149.457C183.205 144.964 175.843 145.393 173.144 139" stroke="black"
            stroke-linecap="round" stroke-linejoin="round" stroke-width="0.57" />
        <path d="M169.303 50.2562C168.581 50.1557 167.844 50.2703 167.186 50.5857" stroke="black"
            stroke-linecap="round" stroke-miterlimit="22.93" stroke-width="0.57" />
        <path d="M183.227 50.2562C183.95 50.1537 184.687 50.2683 185.345 50.5857" stroke="black"
            stroke-linecap="round" stroke-miterlimit="22.93" stroke-width="0.57" />
        <path clip-rule="evenodd" d="M198.479 72.313H167.208C166.626 72.313 166.068 72.5444 165.656 72.9564C165.245 73.3684 165.013 73.9272 165.013 74.5098C165.013 75.0925 165.245 75.6513 165.656 76.0633C166.068 76.4753 166.626 76.7067 167.208 76.7067H198.479C199.061 76.7067 199.619 76.4753 200.03 76.0633C200.442 75.6513 200.673 75.0925 200.673 74.5098C200.673 73.9272 200.442 73.3684 200.03 72.9564C199.619 72.5444 199.061 72.313 198.479 72.313Z"
            fill="#60C9F8"
            fill-rule="evenodd" />
        <path
            d="M198.479 72.313H167.208C166.626 72.313 166.068 72.5444 165.656 72.9564C165.245 73.3684 165.013 73.9272 165.013 74.5098C165.013 75.0925 165.245 75.6513 165.656 76.0633C166.068 76.4753 166.626 76.7067 167.208 76.7067H198.479C199.061 76.7067 199.619 76.4753 200.03 76.0633C200.442 75.6513 200.673 75.0925 200.673 74.5098C200.673 73.9272 200.442 73.3684 200.03 72.9564C199.619 72.5444 199.061 72.313 198.479 72.313Z"
            stroke="black" stroke-linecap="round" stroke-miterlimit="22.93" stroke-width="0.57" />
        <path d="M198.775 46.4446H150.662" stroke="black" stroke-linecap="round"
            stroke-miterlimit="22.93" stroke-width="0.57" />
        <path clip-rule="evenodd" d="M207.981 147.853L198.621 105.475C198.512 106.288 199.62 114.131 200.64 121.831C200.64 122.127 201.737 121.501 201.814 121.831C203.811 136.726 207.377 155.125 205.172 169.811C204.524 174.095 207.597 175.215 207.443 174.908C206.722 173.256 206.542 171.418 206.927 169.657C207.333 167.46 208.771 166.362 208.025 165.263L207.981 147.853Z"
            fill="black"
            fill-rule="evenodd" />
        <path
            d="M207.981 147.853L198.621 105.475C198.512 106.288 199.62 114.131 200.64 121.831C200.64 122.127 201.737 121.501 201.814 121.831C203.811 136.726 207.377 155.125 205.172 169.811C204.524 174.095 207.597 175.215 207.443 174.908C206.722 173.256 206.542 171.418 206.927 169.657C207.333 167.46 208.771 166.362 208.025 165.263L207.981 147.853Z"
            stroke="black" stroke-linecap="round" stroke-miterlimit="22.93" stroke-width="0.57" />
        <path clip-rule="evenodd" d="M159.626 99.3347C158.254 103.432 153.679 114.713 153.986 123.566C154.206 129.959 155.083 133.101 157.497 140.9C159.231 146.557 159.198 152.324 159.33 148.875C159.703 139.285 154.776 129.882 155.083 121.831C155.493 114.15 157.023 106.571 159.626 99.3347Z"
            fill="black"
            fill-rule="evenodd" />
        <path
            d="M159.626 99.3347C158.254 103.432 153.679 114.713 153.986 123.566C154.206 129.959 155.083 133.101 157.497 140.9C159.231 146.557 159.198 152.324 159.33 148.875C159.703 139.285 154.776 129.882 155.083 121.831C155.493 114.15 157.023 106.571 159.626 99.3347Z"
            stroke="black" stroke-linecap="round" stroke-miterlimit="22.93" stroke-width="0.57" />
        <path clip-rule="evenodd" d="M166.769 76.6518L166.297 78.5961C172.392 77.6097 178.54 76.9861 184.709 76.7287L166.769 76.6518Z"
            fill="black"
            fill-rule="evenodd" />
        <path
            d="M166.769 76.6518L166.297 78.5961C172.392 77.6097 178.54 76.9861 184.709 76.7287L166.769 76.6518Z"
            stroke="black" stroke-linecap="round" stroke-miterlimit="22.93" stroke-width="0.57" />
        <path clip-rule="evenodd" d="M160.537 224.865L160.054 226.798C166.154 225.826 172.305 225.203 178.476 224.931L160.537 224.865Z"
            fill="black"
            fill-rule="evenodd" />
        <path
            d="M160.537 224.865L160.054 226.798C166.154 225.826 172.305 225.203 178.476 224.931L160.537 224.865Z"
            stroke="black" stroke-linecap="round" stroke-miterlimit="22.93" stroke-width="0.57" />
        <path clip-rule="evenodd" d="M183.534 224.865L183.052 226.798C189.152 225.825 195.303 225.202 201.474 224.931L183.534 224.865Z"
            fill="black"
            fill-rule="evenodd" />
        <path
            d="M183.534 224.865L183.052 226.798C189.152 225.825 195.303 225.202 201.474 224.931L183.534 224.865Z"
            stroke="black" stroke-linecap="round" stroke-miterlimit="22.93" stroke-width="0.57" />
        <path clip-rule="evenodd" d="M167.702 46.3677L167.23 48.3119C173.31 47.3272 179.443 46.7037 185.597 46.4446L167.702 46.3677Z"
            fill="black"
            fill-rule="evenodd" />
        <path
            d="M167.702 46.3677L167.23 48.3119C173.31 47.3272 179.443 46.7037 185.597 46.4446L167.702 46.3677Z"
            stroke="black" stroke-linecap="round" stroke-miterlimit="22.93" stroke-width="0.57" />
        <path
            d="M173.221 59.2744C173.197 59.6533 173.251 60.0331 173.379 60.3903C173.508 60.7475 173.708 61.0746 173.967 61.3514C174.227 61.6282 174.541 61.8487 174.889 61.9995C175.237 62.1503 175.612 62.2281 175.991 62.2281C176.37 62.2281 176.746 62.1503 177.094 61.9995C177.442 61.8487 177.755 61.6282 178.015 61.3514C178.274 61.0746 178.474 60.7475 178.603 60.3903C178.731 60.0331 178.785 59.6533 178.762 59.2744"
            stroke="black" stroke-linecap="round" stroke-miterlimit="22.93" stroke-width="0.57" />
        <path clip-rule="evenodd" d="M168.612 57.3741C168.556 57.3769 168.503 57.4013 168.464 57.4422C168.425 57.4831 168.404 57.5374 168.404 57.5938C168.406 57.6483 168.429 57.6998 168.468 57.7384C168.506 57.777 168.558 57.7998 168.612 57.8025C168.668 57.8025 168.721 57.7805 168.76 57.7414C168.799 57.7022 168.821 57.6491 168.821 57.5938C168.822 57.5655 168.818 57.5371 168.808 57.5105C168.798 57.4839 168.783 57.4596 168.764 57.439C168.744 57.4185 168.721 57.4021 168.695 57.391C168.669 57.3798 168.641 57.3741 168.612 57.3741Z"
            fill="black"
            fill-rule="evenodd" />
        <path
            d="M168.612 57.3741C168.556 57.3769 168.503 57.4013 168.464 57.4422C168.425 57.4831 168.404 57.5374 168.404 57.5938C168.406 57.6483 168.429 57.6998 168.468 57.7384C168.506 57.777 168.558 57.7998 168.612 57.8025C168.668 57.8025 168.721 57.7805 168.76 57.7414C168.799 57.7022 168.821 57.6491 168.821 57.5938C168.822 57.5655 168.818 57.5371 168.808 57.5105C168.798 57.4839 168.783 57.4596 168.764 57.439C168.744 57.4185 168.721 57.4021 168.695 57.391C168.669 57.3798 168.641 57.3741 168.612 57.3741Z"
            stroke="black" stroke-linecap="round" stroke-linejoin="round" stroke-width="0.57" />
        <path clip-rule="evenodd" d="M184.215 57.8025C184.271 57.7997 184.324 57.7753 184.363 57.7344C184.402 57.6935 184.423 57.6392 184.423 57.5828C184.421 57.5283 184.398 57.4768 184.359 57.4382C184.321 57.3996 184.269 57.3768 184.215 57.3741C184.159 57.3741 184.106 57.3961 184.067 57.4352C184.028 57.4744 184.006 57.5274 184.006 57.5828C184.005 57.6111 184.009 57.6394 184.019 57.666C184.029 57.6926 184.044 57.717 184.063 57.7375C184.083 57.7581 184.106 57.7744 184.132 57.7856C184.158 57.7968 184.186 57.8025 184.215 57.8025Z"
            fill="black"
            fill-rule="evenodd" />
        <path
            d="M184.215 57.8025C184.271 57.7997 184.324 57.7753 184.363 57.7344C184.402 57.6935 184.423 57.6392 184.423 57.5828C184.421 57.5283 184.398 57.4768 184.359 57.4382C184.321 57.3996 184.269 57.3768 184.215 57.3741C184.159 57.3741 184.106 57.3961 184.067 57.4352C184.028 57.4744 184.006 57.5274 184.006 57.5828C184.005 57.6111 184.009 57.6394 184.019 57.666C184.029 57.6926 184.044 57.717 184.063 57.7375C184.083 57.7581 184.106 57.7744 184.132 57.7856C184.158 57.7968 184.186 57.8025 184.215 57.8025Z"
            stroke="black" stroke-linecap="round" stroke-linejoin="round" stroke-width="0.57" />
        <path d="M183.172 224.898V149.325" stroke="black" stroke-linecap="round"
            stroke-miterlimit="22.93" stroke-width="0.57" />
        <path clip-rule="evenodd" d="M215.661 175.369C216.418 175.171 213.993 181.356 214.388 182.498C215.156 184.695 218.437 182.608 219.052 181.608C219.359 181.114 223.44 184.464 223.715 175.556C223.802 172.733 221.838 162.21 221.63 158.398C220.675 140.823 214.377 97.0829 199.773 78.6839C198.676 77.3109 197.743 78.2336 196.844 78.4423C195.406 78.7828 194.101 79.6725 192.696 84.6485C191.215 89.9101 193.607 102.564 198.127 105.519C201.529 121.402 206.796 140.746 207.52 157.069C207.684 160.562 208.09 163.023 207.52 165.044C207.048 166.746 205.709 167.944 204.842 171.14C204.25 173.337 207.366 178.555 209.001 177.819C210.098 177.335 210.34 176.544 211.492 172.854C211.788 171.931 213.181 168.339 213.829 168.032C215.299 167.219 215.902 173.216 215.65 175.413"
            fill="#60C9F8"
            fill-rule="evenodd" />
        <path
            d="M215.705 174.106C215.747 176.445 215.291 178.767 214.366 180.916C213.763 182.421 214.718 183.113 215.815 183.19C217.351 183.355 218.547 182.256 219.699 179.181C220.565 176.553 220.904 173.779 220.697 171.019C220.566 169.438 222.574 169.053 222.398 166.625C221.038 154.927 219.425 108.661 200.179 78.3983"
            stroke="black" stroke-linecap="round" stroke-linejoin="round" stroke-width="0.57" />
        <path
            d="M215.661 175.369C215.913 173.172 215.31 167.175 213.84 167.988C213.192 168.295 211.799 171.887 211.503 172.81C211.042 174.282 210.91 176.017 210.57 176.819C209.385 179.499 205.852 176.017 205.27 173.612C204.173 168.987 207.333 165.582 207.531 165C208.222 162.99 207.629 159.508 207.531 157.025C206.806 140.702 201.54 121.359 198.138 105.475"
            stroke="black" stroke-linecap="round" stroke-linejoin="round" stroke-width="0.57" />
        <path clip-rule="evenodd" d="M215.507 169.196C216.462 172.491 215.507 181.773 212.479 183.585C211.009 184.464 209.045 183.772 208.825 182.806C208.277 180.466 209.539 179.862 210.164 176.468C210.677 173.519 210.711 170.507 210.263 167.548C209.846 165.274 212.764 163.682 214.893 167.768C215.159 168.215 215.366 168.695 215.507 169.196Z"
            fill="#60C9F8"
            fill-rule="evenodd" />
        <path
            d="M215.507 169.196C216.462 172.491 215.507 181.773 212.479 183.585C211.009 184.464 209.045 183.772 208.825 182.806C208.277 180.466 209.539 179.862 210.164 176.468C210.677 173.519 210.711 170.507 210.263 167.548C209.846 165.274 212.764 163.682 214.893 167.768C215.159 168.215 215.366 168.695 215.507 169.196Z"
            stroke="black" stroke-linecap="round" stroke-miterlimit="22.93" stroke-width="0.57" />
        <path
            d="M221.937 162.825C221.827 163.429 223.989 170.92 223.561 176.193C223.32 179.126 221.531 182.926 219.052 181.608"
            stroke="black" stroke-linecap="round" stroke-miterlimit="22.93" stroke-width="0.57" />
        <path clip-rule="evenodd" d="M213.467 161.386C212.297 161.448 211.197 161.966 210.402 162.827C209.607 163.689 209.179 164.827 209.209 165.999C209.168 166.573 209.241 167.149 209.426 167.694C209.61 168.239 209.902 168.741 210.283 169.171C210.665 169.601 211.128 169.95 211.647 170.198C212.165 170.445 212.728 170.586 213.302 170.613C214.472 170.55 215.572 170.033 216.367 169.172C217.162 168.31 217.59 167.172 217.559 165.999C217.599 165.426 217.525 164.851 217.34 164.306C217.155 163.762 216.863 163.261 216.482 162.831C216.101 162.401 215.638 162.052 215.12 161.804C214.602 161.556 214.04 161.414 213.467 161.386Z"
            fill="#60C9F8"
            fill-rule="evenodd" />
        <path clip-rule="evenodd" d="M220.785 162.166C219.896 162.166 216.594 170.294 219.82 170.613C223.045 170.931 221.081 176.105 222.014 176.105C222.947 176.105 223.111 173.205 223.111 171.865C223.111 170.525 221.685 162.144 220.785 162.144"
            fill="#60C9F8"
            fill-rule="evenodd" />
        <path
            d="M210.416 169.822C210.416 168.866 209.594 168.57 209.44 170.02C209.318 171.282 209.636 172.547 210.34 173.601"
            stroke="black" stroke-linecap="round" stroke-miterlimit="22.93" stroke-width="0.57" />
        <path
            d="M183.778 98.1591L177.853 104.085L183.778 110.012H177.006L174.465 107.471L171.08 104.085L177.006 98.1591H183.778ZM177.006 88L166 99.0059L169.387 102.393L183.778 88H177.006Z"
            fill="white" />
    </g>
    <defs>
        <clipPath id="clip0_0_1">
            <rect fill="white" height="212" transform="translate(145 32)" width="79" />
        </clipPath>
    </defs>
</svg>
