<svg width="280" height="238" viewBox="0 0 280 238" fill="none" xmlns="http://www.w3.org/2000/svg">
<circle opacity="0.15" cx="130.667" cy="125.333" r="96" fill="#60C9F8"/>
<g clip-path="url(#clip0_28_741)">
<path fill-rule="evenodd" clip-rule="evenodd" d="M141.107 44.3277C141.277 44.791 158.463 56.4746 162.576 61.0509C162.576 61.0509 168.689 47.2655 168.892 46.8249C170.463 43.3333 166.158 36.1695 174.316 32.3503C177.943 30.6441 180.203 33.7401 177.537 36.2034C177.131 36.634 176.632 36.9664 176.079 37.1751L179.683 37.0396C183.073 37.1299 194.102 38.7797 193.989 41.5593C193.909 43.548 192.768 43.3785 192.52 43.5254C192.71 43.6348 192.874 43.7859 192.998 43.9674C193.122 44.1489 193.203 44.3561 193.236 44.5734C193.268 44.7908 193.251 45.0127 193.186 45.2225C193.121 45.4324 193.009 45.6248 192.859 45.7853C191.672 47.2429 189.898 46.3729 190.599 46.8023C192.079 47.6723 190.791 50.4633 188.757 50C183.22 48.7119 180.972 50.3503 179.909 52.4068C175.243 61.4463 172 72.7458 168.61 76.1356C160.757 83.8418 152.621 73.2317 142.621 54.9379C139.152 48.5763 135.13 53.2994 139.537 47.5593C139.717 47.2881 141.107 44.3277 141.107 44.3277Z" fill="#60C9F8"/>
<path d="M141.107 44.3277C141.277 44.791 158.463 56.4746 162.576 61.0509C162.576 61.0509 168.689 47.2655 168.892 46.8249C170.463 43.3333 166.158 36.1695 174.316 32.3503C177.943 30.6441 180.203 33.7401 177.537 36.2034C177.131 36.634 176.632 36.9664 176.079 37.1751L179.683 37.0396C183.073 37.1299 194.102 38.7797 193.989 41.5593C193.909 43.548 192.768 43.3785 192.52 43.5254C192.71 43.6348 192.874 43.7859 192.998 43.9674C193.122 44.1489 193.203 44.3561 193.236 44.5734C193.268 44.7908 193.251 45.0127 193.186 45.2225C193.121 45.4324 193.009 45.6248 192.859 45.7853C191.672 47.2429 189.898 46.3729 190.599 46.8023C192.079 47.6723 190.791 50.4633 188.757 50C183.22 48.7119 180.972 50.3503 179.909 52.4068C175.243 61.4463 172 72.7458 168.61 76.1356C160.757 83.8418 152.621 73.2316 142.621 54.9379C139.152 48.5763 135.13 53.2994 139.537 47.5593C139.717 47.2881 141.107 44.3277 141.107 44.3277Z" stroke="black" stroke-width="0.57" stroke-miterlimit="22.93" stroke-linecap="round"/>
<path fill-rule="evenodd" clip-rule="evenodd" d="M145.932 47.6158L149.74 51.1864C152 61.6723 153.638 64.2712 155.39 74.5424C153.13 72.6667 153.458 77.7627 151.198 75.887L145.932 47.6158Z" fill="black"/>
<path d="M145.932 47.6158L149.74 51.1864C152 61.6723 153.638 64.2712 155.39 74.5424C153.13 72.6667 153.458 77.7627 151.198 75.887L145.932 47.6158Z" stroke="black" stroke-width="0.57" stroke-miterlimit="22.93" stroke-linecap="round"/>
<path fill-rule="evenodd" clip-rule="evenodd" d="M112.181 46.4294C107.073 50.1017 96.5309 57.6271 93.4235 61.0169C93.4235 61.0169 87.3105 47.2316 87.1072 46.791C85.5365 43.3333 89.8416 36.1582 81.6721 32.3503C78.0563 30.6441 75.7964 33.7401 78.4631 36.1582C78.8687 36.5888 79.3672 36.9212 79.9207 37.1299L76.3162 36.9943C72.9264 37.0847 61.8981 38.7345 62.0111 41.5141C62.0902 43.5028 63.2315 43.3333 63.4913 43.4802C63.2999 43.5886 63.1355 43.739 63.0104 43.92C62.8853 44.101 62.8028 44.3079 62.7691 44.5254C62.7354 44.7428 62.7514 44.965 62.8158 45.1754C62.8802 45.3858 62.9914 45.5788 63.1411 45.7401C64.3275 47.1977 66.1015 46.3277 65.4009 46.7571C63.9207 47.6271 65.2089 50.4181 67.2428 49.9548C72.7795 48.6667 75.0281 50.3051 76.0902 52.3616C80.7569 61.4011 83.9998 72.7006 87.3896 76.0904C92.158 80.7684 96.4292 77.7853 102.339 72.5876C100.615 79.1294 99.921 85.8999 100.282 92.6554H158.113C157.288 66.6667 145.774 61.2768 145.774 35.8531C145.774 26.1921 145.774 26.3503 145.774 16.6441C145.774 -4.0339 113.243 -4.82487 113.277 16.6441V37.5028C113.294 40.5129 112.925 43.5128 112.181 46.4294Z" fill="#60C9F8"/>
<path d="M112.181 46.4294C107.073 50.1017 96.5309 57.6271 93.4235 61.0169C93.4235 61.0169 87.3105 47.2316 87.1072 46.791C85.5365 43.3333 89.8416 36.1582 81.6721 32.3503C78.0563 30.6441 75.7964 33.7401 78.4631 36.1582C78.8687 36.5888 79.3672 36.9212 79.9207 37.1299L76.3162 36.9943C72.9264 37.0847 61.8981 38.7345 62.0111 41.5141C62.0902 43.5028 63.2315 43.3333 63.4913 43.4802C63.2999 43.5886 63.1355 43.739 63.0104 43.92C62.8853 44.101 62.8028 44.3079 62.7691 44.5254C62.7354 44.7428 62.7514 44.965 62.8158 45.1754C62.8802 45.3858 62.9914 45.5788 63.1411 45.7401C64.3275 47.1977 66.1015 46.3277 65.4009 46.7571C63.9207 47.6271 65.2089 50.4181 67.2428 49.9548C72.7795 48.6667 75.0281 50.3051 76.0902 52.3616C80.7569 61.4011 83.9998 72.7006 87.3896 76.0904C92.158 80.7684 96.4292 77.7853 102.339 72.5876C100.615 79.1294 99.921 85.8999 100.282 92.6554H158.113C157.288 66.6667 145.774 61.2768 145.774 35.8531C145.774 26.1921 145.774 26.3503 145.774 16.6441C145.774 -4.0339 113.243 -4.82487 113.277 16.6441V37.5028C113.294 40.5129 112.925 43.5128 112.181 46.4294Z" stroke="black" stroke-width="0.57" stroke-miterlimit="22.93" stroke-linecap="round"/>
<path fill-rule="evenodd" clip-rule="evenodd" d="M162.565 61.0169C162.361 61.4802 160.61 65.3107 160.102 66.452C160.794 64.75 161.122 62.9214 161.062 61.0847C161.062 61.0847 160.915 59.4915 161.062 59.7062C161.411 60.2763 161.816 60.81 162.271 61.2994C162.282 61.1977 162.52 60.9492 162.565 61.0169Z" fill="black"/>
<path d="M162.565 61.0169C162.361 61.4802 160.61 65.3107 160.102 66.452C160.794 64.75 161.122 62.9214 161.062 61.0847C161.062 61.0847 160.915 59.4915 161.062 59.7062C161.411 60.2763 161.816 60.81 162.271 61.2994C162.282 61.1977 162.52 60.9492 162.565 61.0169Z" stroke="black" stroke-width="0.57" stroke-linecap="round" stroke-linejoin="round"/>
<path fill-rule="evenodd" clip-rule="evenodd" d="M93.4351 61.0169C93.6384 61.4802 95.3899 65.3107 95.8983 66.452C95.2055 64.75 94.8783 62.9214 94.9379 61.0847C94.9379 61.0847 95.0848 59.4915 94.9379 59.7062C94.5891 60.2763 94.184 60.81 93.7288 61.2994C93.7288 61.2994 93.4803 60.9492 93.4351 61.0169Z" fill="black"/>
<path d="M93.4351 61.0169C93.6384 61.4802 95.3899 65.3107 95.8983 66.452C95.2055 64.75 94.8783 62.9214 94.9379 61.0847C94.9379 61.0847 95.0848 59.4915 94.9379 59.7062C94.5891 60.2763 94.184 60.81 93.7288 61.2994C93.7288 61.2994 93.4803 60.9492 93.4351 61.0169Z" stroke="black" stroke-width="0.57" stroke-linecap="round" stroke-linejoin="round"/>
<path fill-rule="evenodd" clip-rule="evenodd" d="M152.271 198.158H128.542C128.353 198.166 128.174 198.245 128.04 198.379C127.906 198.513 127.827 198.692 127.819 198.881L126.689 214.881H164.633C165.345 208.181 160.429 206.147 154.644 203.277C152.452 201.616 152.271 198.158 152.271 198.158Z" fill="#60C9F8"/>
<path d="M152.271 198.158H128.542C128.353 198.166 128.174 198.245 128.04 198.379C127.906 198.513 127.827 198.692 127.819 198.881L126.689 214.881H164.633C165.345 208.181 160.429 206.147 154.644 203.277C152.452 201.616 152.271 198.158 152.271 198.158Z" stroke="black" stroke-width="0.57" stroke-linecap="round" stroke-linejoin="round"/>
<path d="M164.678 212.316H126.282C125.883 212.316 125.559 212.64 125.559 213.04V216.463C125.559 216.863 125.883 217.186 126.282 217.186H164.678C165.077 217.186 165.401 216.863 165.401 216.463V213.04C165.401 212.64 165.077 212.316 164.678 212.316Z" fill="#60C9F8"/>
<path d="M164.678 212.316H126.282C125.883 212.316 125.559 212.64 125.559 213.04V216.463C125.559 216.863 125.883 217.186 126.282 217.186H164.678C165.077 217.186 165.401 216.863 165.401 216.463V213.04C165.401 212.64 165.077 212.316 164.678 212.316Z" stroke="black" stroke-width="0.57" stroke-linecap="round" stroke-linejoin="round"/>
<path fill-rule="evenodd" clip-rule="evenodd" d="M128.904 198.158H105.175C104.986 198.166 104.807 198.245 104.673 198.379C104.539 198.513 104.46 198.692 104.452 198.881L103.322 214.881H141.266C141.977 208.181 137.062 206.147 131.277 203.277C129.13 201.616 128.904 198.158 128.904 198.158Z" fill="#60C9F8"/>
<path d="M128.904 198.158H105.175C104.986 198.166 104.807 198.245 104.673 198.379C104.539 198.513 104.46 198.692 104.452 198.881L103.322 214.881H141.266C141.977 208.181 137.062 206.147 131.277 203.277C129.13 201.616 128.904 198.158 128.904 198.158Z" stroke="black" stroke-width="0.57" stroke-linecap="round" stroke-linejoin="round"/>
<path d="M141.322 212.316H102.915C102.516 212.316 102.192 212.64 102.192 213.04V216.463C102.192 216.863 102.516 217.186 102.915 217.186H141.322C141.721 217.186 142.045 216.863 142.045 216.463V213.04C142.045 212.64 141.721 212.316 141.322 212.316Z" fill="#60C9F8"/>
<path d="M141.322 212.316H102.915C102.516 212.316 102.192 212.64 102.192 213.04V216.463C102.192 216.863 102.516 217.186 102.915 217.186H141.322C141.721 217.186 142.045 216.863 142.045 216.463V213.04C142.045 212.64 141.721 212.316 141.322 212.316Z" stroke="black" stroke-width="0.57" stroke-linecap="round" stroke-linejoin="round"/>
<path fill-rule="evenodd" clip-rule="evenodd" d="M145.751 16.6667C145.751 26.3277 145.751 26.1695 145.751 35.8757C145.746 38.7152 145.908 41.5525 146.237 44.3729H112.621C113.062 42.1399 113.286 39.8694 113.288 37.5932V16.7345C113.22 -4.74576 145.717 -4.0113 145.751 16.6667Z" fill="#60C9F8"/>
<path d="M145.751 16.6667C145.751 26.3277 145.751 26.1695 145.751 35.8757C145.746 38.7152 145.908 41.5525 146.237 44.3729H112.621C113.062 42.1399 113.286 39.8694 113.288 37.5932V16.7345C113.22 -4.74576 145.717 -4.0113 145.751 16.6667Z" stroke="black" stroke-width="0.57" stroke-linecap="round" stroke-linejoin="round"/>
<path fill-rule="evenodd" clip-rule="evenodd" d="M113.311 14.9492C114.926 -4.113 143.943 -3.49152 145.661 14.9492H113.311Z" fill="#60C9F8"/>
<path d="M113.311 14.9492C114.926 -4.113 143.943 -3.49152 145.661 14.9492H113.311Z" stroke="black" stroke-width="0.57" stroke-linecap="round" stroke-linejoin="round"/>
<path fill-rule="evenodd" clip-rule="evenodd" d="M100.384 92.339C100.367 92.5722 100.367 92.8063 100.384 93.0395C100.181 103.966 103.706 109.989 103.672 119.966C103.672 141.605 103.028 197.232 103.085 198.362H153.65C153.65 198.362 154.102 141.74 153.785 120.52C153.627 109.22 156.904 105.989 158.124 93.1638C158.141 92.8892 158.141 92.6137 158.124 92.339H100.384Z" fill="#60C9F8"/>
<path d="M100.384 92.339C100.367 92.5722 100.367 92.8063 100.384 93.0395C100.181 103.966 103.706 109.989 103.672 119.966C103.672 141.605 103.028 197.232 103.085 198.362H153.65C153.65 198.362 154.102 141.74 153.785 120.52C153.627 109.22 156.904 105.989 158.124 93.1638C158.141 92.8892 158.141 92.6137 158.124 92.339H100.384Z" stroke="black" stroke-width="0.57" stroke-linecap="round" stroke-linejoin="round"/>
<path fill-rule="evenodd" clip-rule="evenodd" d="M144.305 27.9209C143.934 27.9208 143.571 27.8112 143.261 27.6058C142.952 27.4004 142.71 27.1083 142.566 26.7661C142.422 26.4239 142.382 26.0468 142.452 25.6821C142.521 25.3173 142.696 24.9811 142.955 24.7155C143.215 24.4499 143.547 24.2667 143.91 24.1888C144.273 24.111 144.651 24.142 144.996 24.2779C145.342 24.4138 145.639 24.6486 145.852 24.953C146.065 25.2573 146.183 25.6176 146.192 25.9887C146.198 26.2403 146.154 26.4906 146.061 26.7247C145.969 26.9589 145.831 27.1723 145.655 27.3523C145.48 27.5324 145.27 27.6754 145.038 27.7731C144.806 27.8707 144.557 27.921 144.305 27.9209Z" fill="white"/>
<path d="M144.305 27.9209C143.934 27.9208 143.571 27.8112 143.261 27.6058C142.952 27.4004 142.71 27.1083 142.566 26.7661C142.422 26.4239 142.382 26.0468 142.452 25.6821C142.521 25.3173 142.696 24.9811 142.955 24.7155C143.215 24.4499 143.547 24.2667 143.91 24.1888C144.273 24.111 144.651 24.142 144.996 24.2779C145.342 24.4138 145.639 24.6486 145.852 24.953C146.065 25.2573 146.183 25.6176 146.192 25.9887C146.198 26.2403 146.154 26.4906 146.061 26.7247C145.969 26.9589 145.831 27.1723 145.655 27.3523C145.48 27.5324 145.27 27.6754 145.038 27.7731C144.806 27.8707 144.557 27.921 144.305 27.9209Z" stroke="black" stroke-width="0.57" stroke-linecap="round" stroke-linejoin="round"/>
<path fill-rule="evenodd" clip-rule="evenodd" d="M128.463 24.1469C128.838 24.147 129.205 24.2589 129.516 24.4683C129.827 24.6778 130.069 24.9752 130.211 25.3226C130.352 25.6701 130.387 26.0518 130.31 26.419C130.233 26.7862 130.049 27.1223 129.781 27.3843C129.512 27.6463 129.172 27.8224 128.803 27.89C128.434 27.9576 128.053 27.9137 127.709 27.764C127.365 27.6142 127.074 27.3653 126.872 27.0491C126.67 26.7329 126.567 26.3637 126.576 25.9887C126.588 25.4961 126.792 25.0277 127.145 24.6835C127.497 24.3394 127.971 24.1468 128.463 24.1469Z" fill="white"/>
<path d="M128.463 24.1469C128.838 24.147 129.205 24.2589 129.516 24.4683C129.827 24.6778 130.069 24.9752 130.211 25.3226C130.352 25.6701 130.387 26.0518 130.31 26.419C130.233 26.7862 130.049 27.1223 129.781 27.3843C129.512 27.6463 129.172 27.8224 128.803 27.89C128.434 27.9576 128.053 27.9137 127.709 27.764C127.365 27.6142 127.074 27.3653 126.872 27.0491C126.67 26.7329 126.567 26.3637 126.576 25.9887C126.588 25.4961 126.792 25.0277 127.145 24.6835C127.497 24.3394 127.971 24.1468 128.463 24.1469Z" stroke="black" stroke-width="0.57" stroke-linecap="round" stroke-linejoin="round"/>
<path d="M129.13 120.757C129.13 116.136 136.723 116.565 139.491 110" stroke="black" stroke-width="0.57" stroke-linecap="round" stroke-linejoin="round"/>
<path d="M143.604 18.7119C144.349 18.6029 145.109 18.7211 145.785 19.0509" stroke="black" stroke-width="0.57" stroke-miterlimit="22.93" stroke-linecap="round"/>
<path d="M129.254 18.7119C128.51 18.6029 127.75 18.7211 127.073 19.0509" stroke="black" stroke-width="0.57" stroke-miterlimit="22.93" stroke-linecap="round"/>
<path fill-rule="evenodd" clip-rule="evenodd" d="M113.559 41.4011H145.763C146.362 41.4011 146.937 41.6392 147.361 42.063C147.784 42.4868 148.022 43.0617 148.022 43.661C148.022 44.2604 147.784 44.8352 147.361 45.259C146.937 45.6828 146.362 45.9209 145.763 45.9209H113.559C112.96 45.9209 112.385 45.6828 111.961 45.259C111.537 44.8352 111.299 44.2604 111.299 43.661C111.299 43.0617 111.537 42.4868 111.961 42.063C112.385 41.6392 112.96 41.4011 113.559 41.4011Z" fill="#60C9F8"/>
<path d="M113.559 41.4011H145.763C146.362 41.4011 146.937 41.6392 147.361 42.063C147.784 42.4868 148.022 43.0617 148.022 43.661C148.022 44.2604 147.784 44.8352 147.361 45.259C146.937 45.6828 146.362 45.9209 145.763 45.9209H113.559C112.96 45.9209 112.385 45.6828 111.961 45.259C111.537 44.8352 111.299 44.2604 111.299 43.661C111.299 43.0617 111.537 42.4868 111.961 42.063C112.385 41.6392 112.96 41.4011 113.559 41.4011Z" stroke="black" stroke-width="0.57" stroke-miterlimit="22.93" stroke-linecap="round"/>
<path d="M113.254 14.791H162.791" stroke="black" stroke-width="0.57" stroke-miterlimit="22.93" stroke-linecap="round"/>
<path fill-rule="evenodd" clip-rule="evenodd" d="M146.215 45.8644L146.701 47.8644C140.42 46.8483 134.085 46.2032 127.729 45.9322L146.215 45.8644Z" fill="black"/>
<path d="M146.215 45.8644L146.701 47.8644C140.42 46.8483 134.085 46.2032 127.729 45.9322L146.215 45.8644Z" stroke="black" stroke-width="0.57" stroke-miterlimit="22.93" stroke-linecap="round"/>
<path fill-rule="evenodd" clip-rule="evenodd" d="M152.475 198.316L152.96 200.316C146.684 199.302 140.353 198.66 134 198.395L152.475 198.316Z" fill="black"/>
<path d="M152.475 198.316L152.96 200.316C146.684 199.302 140.353 198.66 134 198.395L152.475 198.316Z" stroke="black" stroke-width="0.57" stroke-miterlimit="22.93" stroke-linecap="round"/>
<path fill-rule="evenodd" clip-rule="evenodd" d="M128.791 198.316L129.277 200.316C123 199.302 116.669 198.66 110.316 198.395L128.791 198.316Z" fill="black"/>
<path d="M128.791 198.316L129.277 200.316C123 199.302 116.669 198.66 110.316 198.395L128.791 198.316Z" stroke="black" stroke-width="0.57" stroke-miterlimit="22.93" stroke-linecap="round"/>
<path fill-rule="evenodd" clip-rule="evenodd" d="M145.243 14.6893L145.74 16.6893C139.46 15.6732 133.125 15.028 126.768 14.7571L145.243 14.6893Z" fill="black"/>
<path d="M145.243 14.6893L145.74 16.6893C139.46 15.6732 133.125 15.028 126.768 14.7571L145.243 14.6893Z" stroke="black" stroke-width="0.57" stroke-miterlimit="22.93" stroke-linecap="round"/>
<path fill-rule="evenodd" clip-rule="evenodd" d="M144.136 25.8418C144.193 25.8418 144.247 25.8644 144.287 25.9047C144.328 25.9449 144.35 25.9995 144.35 26.0565C144.352 26.0851 144.347 26.1138 144.337 26.1405C144.327 26.1673 144.311 26.1917 144.291 26.2119C144.271 26.2322 144.246 26.248 144.22 26.2582C144.193 26.2684 144.164 26.2728 144.136 26.2712C144.079 26.2712 144.024 26.2486 143.984 26.2083C143.944 26.168 143.921 26.1134 143.921 26.0565C143.924 26.0004 143.947 25.9474 143.987 25.9077C144.027 25.868 144.08 25.8445 144.136 25.8418Z" fill="black"/>
<path d="M144.136 25.8418C144.193 25.8418 144.247 25.8644 144.287 25.9047C144.328 25.9449 144.35 25.9995 144.35 26.0565C144.352 26.0851 144.347 26.1138 144.337 26.1405C144.327 26.1673 144.311 26.1917 144.291 26.2119C144.271 26.2322 144.246 26.248 144.22 26.2582C144.193 26.2684 144.164 26.2728 144.136 26.2712C144.079 26.2712 144.024 26.2486 143.984 26.2083C143.944 26.168 143.921 26.1134 143.921 26.0565C143.924 26.0004 143.947 25.9474 143.987 25.9077C144.027 25.868 144.08 25.8445 144.136 25.8418Z" stroke="black" stroke-width="0.57" stroke-linecap="round" stroke-linejoin="round"/>
<path fill-rule="evenodd" clip-rule="evenodd" d="M128.497 26.2938C128.441 26.291 128.388 26.2675 128.348 26.2279C128.309 26.1882 128.285 26.1351 128.282 26.0791C128.282 26.0222 128.305 25.9675 128.345 25.9273C128.386 25.887 128.44 25.8644 128.497 25.8644C128.526 25.8629 128.555 25.8673 128.583 25.8774C128.61 25.8875 128.635 25.9031 128.656 25.9231C128.677 25.9432 128.694 25.9674 128.706 25.9942C128.717 26.0211 128.723 26.0499 128.723 26.0791C128.72 26.1371 128.695 26.1917 128.653 26.2316C128.611 26.2716 128.555 26.2939 128.497 26.2938Z" fill="black"/>
<path d="M128.497 26.2938C128.441 26.291 128.388 26.2675 128.348 26.2279C128.309 26.1882 128.285 26.1351 128.282 26.0791C128.282 26.0222 128.305 25.9675 128.345 25.9273C128.386 25.887 128.44 25.8644 128.497 25.8644C128.526 25.8629 128.555 25.8673 128.583 25.8774C128.61 25.8875 128.635 25.9031 128.656 25.9231C128.677 25.9432 128.694 25.9674 128.706 25.9942C128.717 26.0211 128.723 26.0499 128.723 26.0791C128.72 26.1371 128.695 26.1917 128.653 26.2316C128.611 26.2716 128.555 26.2939 128.497 26.2938Z" stroke="black" stroke-width="0.57" stroke-linecap="round" stroke-linejoin="round"/>
<path d="M129.164 198.362V120.61" stroke="black" stroke-width="0.57" stroke-miterlimit="22.93" stroke-linecap="round"/>
<path d="M192.734 43.5028C190.515 42.5139 188.133 41.9395 185.706 41.8079" stroke="black" stroke-width="0.57" stroke-miterlimit="22.93" stroke-linecap="round"/>
<path d="M63.2654 43.5028C65.4851 42.5139 67.8671 41.9395 70.2936 41.8079" stroke="black" stroke-width="0.57" stroke-miterlimit="22.93" stroke-linecap="round"/>
<path d="M190.813 46.7684C190.169 46.5198 189.525 45.7514 185.491 45.7514" stroke="black" stroke-width="0.57" stroke-miterlimit="22.93" stroke-linecap="round"/>
<path d="M65.1863 46.7684C65.8303 46.5198 66.4744 45.7514 70.5083 45.7514" stroke="black" stroke-width="0.57" stroke-miterlimit="22.93" stroke-linecap="round"/>
<path d="M134.904 32.5198H139.706" stroke="#353535" stroke-width="0.57" stroke-miterlimit="22.93" stroke-linecap="round"/>
<path d="M176.316 37.0621C176.215 38.6215 176.825 38.1243 178.011 39.8644C178.568 40.7029 178.952 41.644 179.141 42.6328" stroke="#353535" stroke-width="0.57" stroke-miterlimit="22.93" stroke-linecap="round"/>
<path d="M79.6835 37.0621C79.7852 38.6215 79.175 38.1243 77.9886 39.8644C77.4316 40.7029 77.0475 41.644 76.8586 42.6328" stroke="#353535" stroke-width="0.57" stroke-miterlimit="22.93" stroke-linecap="round"/>
<path d="M101.424 73.2881L109.853 65.4802" stroke="black" stroke-width="0.57" stroke-miterlimit="22.93" stroke-linecap="round"/>
<path fill-rule="evenodd" clip-rule="evenodd" d="M102.339 72.5763L109.424 65.8757L101.367 76.6554L102.339 72.5763Z" fill="black"/>
<path d="M102.339 72.5763L109.424 65.8757L101.367 76.6554L102.339 72.5763Z" stroke="black" stroke-width="0.57" stroke-linecap="round" stroke-linejoin="round"/>
</g>
<path d="M142.222 68.8258L136.297 74.7521L142.222 80.6785H135.45L132.91 78.1381L129.524 74.7521L135.45 68.8258H142.222ZM135.45 58.6667L124.444 69.6726L127.832 73.0598L142.222 58.6667H135.45Z" fill="white"/>
<circle cx="5.33333" cy="29.3333" r="5.33333" fill="#CECECE"/>
<circle cx="267.556" cy="112.889" r="12.4444" fill="#027DFD"/>
<circle cx="50.2222" cy="227.111" r="10.2222" fill="#075B9D"/>
<g opacity="0.2">
<path d="M205.195 170.256L199.276 179.556L205.195 188.856C205.257 188.954 205.3 189.064 205.32 189.179C205.34 189.294 205.338 189.412 205.312 189.526C205.287 189.64 205.239 189.748 205.172 189.844C205.105 189.939 205.02 190.021 204.921 190.083C204.779 190.174 204.614 190.223 204.445 190.222C204.295 190.222 204.147 190.185 204.016 190.113C203.885 190.04 203.774 189.936 203.693 189.81L197.471 180.032C197.38 179.89 197.332 179.724 197.332 179.555C197.332 179.386 197.38 179.22 197.471 179.078L203.693 169.3C203.82 169.101 204.02 168.961 204.251 168.909C204.481 168.858 204.722 168.901 204.921 169.027C205.12 169.154 205.26 169.354 205.311 169.584C205.362 169.814 205.32 170.056 205.193 170.254L205.195 170.256ZM222.083 179.079L215.861 169.301C215.799 169.203 215.717 169.117 215.622 169.05C215.526 168.983 215.418 168.936 215.304 168.911C215.074 168.859 214.833 168.902 214.634 169.028C214.435 169.155 214.295 169.355 214.243 169.585C214.192 169.816 214.235 170.057 214.361 170.256L220.28 179.556L214.361 188.856C214.299 188.954 214.256 189.064 214.236 189.179C214.215 189.294 214.218 189.412 214.243 189.526C214.269 189.64 214.316 189.748 214.384 189.844C214.451 189.939 214.536 190.021 214.635 190.083C214.777 190.174 214.942 190.223 215.111 190.222C215.261 190.222 215.408 190.185 215.54 190.113C215.671 190.04 215.782 189.936 215.862 189.81L222.085 180.032C222.175 179.89 222.223 179.724 222.223 179.555C222.222 179.387 222.174 179.221 222.083 179.079Z" fill="#027DFD"/>
</g>
<g opacity="0.2">
<path d="M49.481 111.357L29.9344 104.111L29.9166 104.106C29.602 103.997 29.2632 103.979 28.939 104.054C28.6147 104.129 28.3179 104.293 28.0823 104.528C27.8467 104.763 27.6818 105.059 27.6064 105.383C27.5309 105.707 27.5479 106.046 27.6555 106.361C27.6568 106.367 27.6587 106.373 27.661 106.379L34.9122 125.926C35.0312 126.274 35.2571 126.576 35.5577 126.789C35.8583 127.002 36.2183 127.115 36.5866 127.111H36.6199C36.9955 127.108 37.3602 126.985 37.6603 126.759C37.9603 126.533 38.1799 126.217 38.2866 125.857L40.9044 117.35L49.411 114.732C49.7685 114.622 50.0821 114.402 50.3074 114.104C50.5326 113.805 50.658 113.443 50.6656 113.069C50.6732 112.695 50.5627 112.329 50.3499 112.021C50.137 111.714 49.8326 111.481 49.4799 111.357H49.481ZM48.8888 113.033L40.3822 115.651C40.1052 115.736 39.8534 115.888 39.6485 116.093C39.4436 116.298 39.2919 116.55 39.2066 116.827L36.5888 125.333L36.5822 125.314L29.3333 105.778L48.8688 113.024L48.8866 113.031L48.8888 113.033Z" fill="#027DFD"/>
</g>
<g opacity="0.2">
<path d="M216.62 65.0067L210.886 62.8955L208.774 57.1567C208.649 56.817 208.423 56.5239 208.126 56.3169C207.83 56.1098 207.476 55.9988 207.114 55.9988C206.752 55.9988 206.399 56.1098 206.102 56.3169C205.806 56.5239 205.579 56.817 205.454 57.1567L203.341 62.8889L197.602 65C197.263 65.125 196.969 65.3512 196.762 65.648C196.555 65.9449 196.444 66.2981 196.444 66.66C196.444 67.0219 196.555 67.3751 196.762 67.6719C196.969 67.9688 197.263 68.195 197.602 68.32L203.333 70.4444L205.444 76.18C205.569 76.5196 205.796 76.8127 206.092 77.0198C206.389 77.2268 206.742 77.3378 207.104 77.3378C207.466 77.3378 207.82 77.2268 208.116 77.0198C208.413 76.8127 208.639 76.5196 208.764 76.18L210.876 70.4455L216.614 68.3344C216.954 68.2094 217.247 67.9832 217.454 67.6864C217.661 67.3895 217.772 67.0363 217.772 66.6744C217.772 66.3125 217.661 65.9593 217.454 65.6625C217.247 65.3656 216.954 65.1394 216.614 65.0144L216.62 65.0067ZM210.266 68.7778C210.025 68.8659 209.807 69.0053 209.626 69.1863C209.445 69.3672 209.306 69.5853 209.218 69.8255L207.107 75.5433L205 69.8211C204.912 69.5822 204.773 69.3652 204.593 69.1851C204.413 69.0049 204.196 68.866 203.957 68.7778L198.239 66.6667L203.957 64.5555C204.196 64.4673 204.413 64.3284 204.593 64.1482C204.773 63.9681 204.912 63.7512 205 63.5122L207.111 57.7944L209.222 63.5122C209.31 63.7524 209.45 63.9706 209.631 64.1515C209.812 64.3324 210.03 64.4718 210.27 64.56L215.988 66.6711L210.266 68.7778ZM210.667 55.1111C210.667 54.8753 210.76 54.6493 210.927 54.4826C211.094 54.3159 211.32 54.2222 211.556 54.2222H213.333V52.4444C213.333 52.2087 213.427 51.9826 213.594 51.8159C213.76 51.6492 213.986 51.5555 214.222 51.5555C214.458 51.5555 214.684 51.6492 214.851 51.8159C215.017 51.9826 215.111 52.2087 215.111 52.4444V54.2222H216.889C217.125 54.2222 217.351 54.3159 217.517 54.4826C217.684 54.6493 217.778 54.8753 217.778 55.1111C217.778 55.3468 217.684 55.5729 217.517 55.7396C217.351 55.9063 217.125 56 216.889 56H215.111V57.7778C215.111 58.0135 215.017 58.2396 214.851 58.4063C214.684 58.573 214.458 58.6667 214.222 58.6667C213.986 58.6667 213.76 58.573 213.594 58.4063C213.427 58.2396 213.333 58.0135 213.333 57.7778V56H211.556C211.32 56 211.094 55.9063 210.927 55.7396C210.76 55.5729 210.667 55.3468 210.667 55.1111ZM222.222 60.4444C222.222 60.6802 222.129 60.9063 221.962 61.073C221.795 61.2397 221.569 61.3333 221.333 61.3333H220.444V62.2222C220.444 62.458 220.351 62.684 220.184 62.8507C220.017 63.0174 219.791 63.1111 219.556 63.1111C219.32 63.1111 219.094 63.0174 218.927 62.8507C218.76 62.684 218.667 62.458 218.667 62.2222V61.3333H217.778C217.542 61.3333 217.316 61.2397 217.149 61.073C216.983 60.9063 216.889 60.6802 216.889 60.4444C216.889 60.2087 216.983 59.9826 217.149 59.8159C217.316 59.6492 217.542 59.5555 217.778 59.5555H218.667V58.6667C218.667 58.4309 218.76 58.2048 218.927 58.0381C219.094 57.8714 219.32 57.7778 219.556 57.7778C219.791 57.7778 220.017 57.8714 220.184 58.0381C220.351 58.2048 220.444 58.4309 220.444 58.6667V59.5555H221.333C221.569 59.5555 221.795 59.6492 221.962 59.8159C222.129 59.9826 222.222 60.2087 222.222 60.4444Z" fill="#027DFD"/>
</g>
<defs>
<clipPath id="clip0_28_741">
<rect width="133.333" height="218.079" fill="white" transform="translate(61.3333)"/>
</clipPath>
</defs>
</svg>
